<?xml version="1.0" encoding="utf-8" standalone="no"?>
<!DOCTYPE svg PUBLIC "-//W3C//DTD SVG 1.1//EN"
  "http://www.w3.org/Graphics/SVG/1.1/DTD/svg11.dtd">
<svg xmlns:xlink="http://www.w3.org/1999/xlink" width="572.4pt" height="327.6pt" viewBox="0 0 572.4 327.6" xmlns="http://www.w3.org/2000/svg" version="1.1">
 <metadata>
  <rdf:RDF xmlns:dc="http://purl.org/dc/elements/1.1/" xmlns:cc="http://creativecommons.org/ns#" xmlns:rdf="http://www.w3.org/1999/02/22-rdf-syntax-ns#">
   <cc:Work>
    <dc:type rdf:resource="http://purl.org/dc/dcmitype/StillImage"/>
    <dc:date>2026-04-02T23:09:17.193273</dc:date>
    <dc:format>image/svg+xml</dc:format>
    <dc:creator>
     <cc:Agent>
      <dc:title>Matplotlib v3.10.8, https://matplotlib.org/</dc:title>
     </cc:Agent>
    </dc:creator>
   </cc:Work>
  </rdf:RDF>
 </metadata>
 <defs>
  <style type="text/css">*{stroke-linejoin: round; stroke-linecap: butt}</style>
 </defs>
 <g id="figure_1">
  <g id="patch_1">
   <path d="M 0 327.6 
L 572.4 327.6 
L 572.4 0 
L 0 0 
z
" style="fill: #fafaf5"/>
  </g>
  <g id="axes_1">
   <g id="text_1">
    <g id="patch_2">
     <path d="M 63.124688 95.320875 
L 140.995313 95.320875 
Q 145.795313 95.320875 145.795313 90.520875 
L 145.795313 65.376 
Q 145.795313 60.576 140.995313 60.576 
L 63.124688 60.576 
Q 58.324688 60.576 58.324688 65.376 
L 58.324688 90.520875 
Q 58.324688 95.320875 63.124688 95.320875 
z
" style="fill: #6b9e6b; opacity: 0.9"/>
    </g>
    <!-- Can Say -->
    <g style="fill: #ffffff" transform="translate(75.15375 74.400375) scale(0.12 -0.12)">
     <defs>
      <path id="DejaVuSans-Bold-43" d="M 4288 256 
Q 3956 84 3597 -3 
Q 3238 -91 2847 -91 
Q 1681 -91 1000 561 
Q 319 1213 319 2328 
Q 319 3447 1000 4098 
Q 1681 4750 2847 4750 
Q 3238 4750 3597 4662 
Q 3956 4575 4288 4403 
L 4288 3438 
Q 3953 3666 3628 3772 
Q 3303 3878 2944 3878 
Q 2300 3878 1931 3465 
Q 1563 3053 1563 2328 
Q 1563 1606 1931 1193 
Q 2300 781 2944 781 
Q 3303 781 3628 887 
Q 3953 994 4288 1222 
L 4288 256 
z
" transform="scale(0.015625)"/>
      <path id="DejaVuSans-Bold-61" d="M 2106 1575 
Q 1756 1575 1579 1456 
Q 1403 1338 1403 1106 
Q 1403 894 1545 773 
Q 1688 653 1941 653 
Q 2256 653 2472 879 
Q 2688 1106 2688 1447 
L 2688 1575 
L 2106 1575 
z
M 3816 1997 
L 3816 0 
L 2688 0 
L 2688 519 
Q 2463 200 2181 54 
Q 1900 -91 1497 -91 
Q 953 -91 614 226 
Q 275 544 275 1050 
Q 275 1666 698 1953 
Q 1122 2241 2028 2241 
L 2688 2241 
L 2688 2328 
Q 2688 2594 2478 2717 
Q 2269 2841 1825 2841 
Q 1466 2841 1156 2769 
Q 847 2697 581 2553 
L 581 3406 
Q 941 3494 1303 3539 
Q 1666 3584 2028 3584 
Q 2975 3584 3395 3211 
Q 3816 2838 3816 1997 
z
" transform="scale(0.015625)"/>
      <path id="DejaVuSans-Bold-6e" d="M 4056 2131 
L 4056 0 
L 2931 0 
L 2931 347 
L 2931 1631 
Q 2931 2084 2911 2256 
Q 2891 2428 2841 2509 
Q 2775 2619 2662 2680 
Q 2550 2741 2406 2741 
Q 2056 2741 1856 2470 
Q 1656 2200 1656 1722 
L 1656 0 
L 538 0 
L 538 3500 
L 1656 3500 
L 1656 2988 
Q 1909 3294 2193 3439 
Q 2478 3584 2822 3584 
Q 3428 3584 3742 3212 
Q 4056 2841 4056 2131 
z
" transform="scale(0.015625)"/>
      <path id="DejaVuSans-Bold-20" transform="scale(0.015625)"/>
      <path id="DejaVuSans-Bold-53" d="M 3834 4519 
L 3834 3531 
Q 3450 3703 3084 3790 
Q 2719 3878 2394 3878 
Q 1963 3878 1756 3759 
Q 1550 3641 1550 3391 
Q 1550 3203 1689 3098 
Q 1828 2994 2194 2919 
L 2706 2816 
Q 3484 2659 3812 2340 
Q 4141 2022 4141 1434 
Q 4141 663 3683 286 
Q 3225 -91 2284 -91 
Q 1841 -91 1394 -6 
Q 947 78 500 244 
L 500 1259 
Q 947 1022 1364 901 
Q 1781 781 2169 781 
Q 2563 781 2772 912 
Q 2981 1044 2981 1288 
Q 2981 1506 2839 1625 
Q 2697 1744 2272 1838 
L 1806 1941 
Q 1106 2091 782 2419 
Q 459 2747 459 3303 
Q 459 4000 909 4375 
Q 1359 4750 2203 4750 
Q 2588 4750 2994 4692 
Q 3400 4634 3834 4519 
z
" transform="scale(0.015625)"/>
      <path id="DejaVuSans-Bold-79" d="M 78 3500 
L 1197 3500 
L 2138 1125 
L 2938 3500 
L 4056 3500 
L 2584 -331 
Q 2363 -916 2067 -1148 
Q 1772 -1381 1288 -1381 
L 641 -1381 
L 641 -647 
L 991 -647 
Q 1275 -647 1404 -556 
Q 1534 -466 1606 -231 
L 1638 -134 
L 78 3500 
z
" transform="scale(0.015625)"/>
     </defs>
     <use xlink:href="#DejaVuSans-Bold-43"/>
     <use xlink:href="#DejaVuSans-Bold-61" transform="translate(73.388672 0)"/>
     <use xlink:href="#DejaVuSans-Bold-6e" transform="translate(140.869141 0)"/>
     <use xlink:href="#DejaVuSans-Bold-20" transform="translate(212.060547 0)"/>
     <use xlink:href="#DejaVuSans-Bold-53" transform="translate(246.875 0)"/>
     <use xlink:href="#DejaVuSans-Bold-61" transform="translate(318.896484 0)"/>
     <use xlink:href="#DejaVuSans-Bold-79" transform="translate(383.251953 0)"/>
    </g>
    <!-- Confidently -->
    <g style="fill: #ffffff" transform="translate(63.124688 87.9315) scale(0.12 -0.12)">
     <defs>
      <path id="DejaVuSans-Bold-6f" d="M 2203 2784 
Q 1831 2784 1636 2517 
Q 1441 2250 1441 1747 
Q 1441 1244 1636 976 
Q 1831 709 2203 709 
Q 2569 709 2762 976 
Q 2956 1244 2956 1747 
Q 2956 2250 2762 2517 
Q 2569 2784 2203 2784 
z
M 2203 3584 
Q 3106 3584 3614 3096 
Q 4122 2609 4122 1747 
Q 4122 884 3614 396 
Q 3106 -91 2203 -91 
Q 1297 -91 786 396 
Q 275 884 275 1747 
Q 275 2609 786 3096 
Q 1297 3584 2203 3584 
z
" transform="scale(0.015625)"/>
      <path id="DejaVuSans-Bold-66" d="M 2841 4863 
L 2841 4128 
L 2222 4128 
Q 1984 4128 1890 4042 
Q 1797 3956 1797 3744 
L 1797 3500 
L 2753 3500 
L 2753 2700 
L 1797 2700 
L 1797 0 
L 678 0 
L 678 2700 
L 122 2700 
L 122 3500 
L 678 3500 
L 678 3744 
Q 678 4316 997 4589 
Q 1316 4863 1984 4863 
L 2841 4863 
z
" transform="scale(0.015625)"/>
      <path id="DejaVuSans-Bold-69" d="M 538 3500 
L 1656 3500 
L 1656 0 
L 538 0 
L 538 3500 
z
M 538 4863 
L 1656 4863 
L 1656 3950 
L 538 3950 
L 538 4863 
z
" transform="scale(0.015625)"/>
      <path id="DejaVuSans-Bold-64" d="M 2919 2988 
L 2919 4863 
L 4044 4863 
L 4044 0 
L 2919 0 
L 2919 506 
Q 2688 197 2409 53 
Q 2131 -91 1766 -91 
Q 1119 -91 703 423 
Q 288 938 288 1747 
Q 288 2556 703 3070 
Q 1119 3584 1766 3584 
Q 2128 3584 2408 3439 
Q 2688 3294 2919 2988 
z
M 2181 722 
Q 2541 722 2730 984 
Q 2919 1247 2919 1747 
Q 2919 2247 2730 2509 
Q 2541 2772 2181 2772 
Q 1825 2772 1636 2509 
Q 1447 2247 1447 1747 
Q 1447 1247 1636 984 
Q 1825 722 2181 722 
z
" transform="scale(0.015625)"/>
      <path id="DejaVuSans-Bold-65" d="M 4031 1759 
L 4031 1441 
L 1416 1441 
Q 1456 1047 1700 850 
Q 1944 653 2381 653 
Q 2734 653 3104 758 
Q 3475 863 3866 1075 
L 3866 213 
Q 3469 63 3072 -14 
Q 2675 -91 2278 -91 
Q 1328 -91 801 392 
Q 275 875 275 1747 
Q 275 2603 792 3093 
Q 1309 3584 2216 3584 
Q 3041 3584 3536 3087 
Q 4031 2591 4031 1759 
z
M 2881 2131 
Q 2881 2450 2695 2645 
Q 2509 2841 2209 2841 
Q 1884 2841 1681 2658 
Q 1478 2475 1428 2131 
L 2881 2131 
z
" transform="scale(0.015625)"/>
      <path id="DejaVuSans-Bold-74" d="M 1759 4494 
L 1759 3500 
L 2913 3500 
L 2913 2700 
L 1759 2700 
L 1759 1216 
Q 1759 972 1856 886 
Q 1953 800 2241 800 
L 2816 800 
L 2816 0 
L 1856 0 
Q 1194 0 917 276 
Q 641 553 641 1216 
L 641 2700 
L 84 2700 
L 84 3500 
L 641 3500 
L 641 4494 
L 1759 4494 
z
" transform="scale(0.015625)"/>
      <path id="DejaVuSans-Bold-6c" d="M 538 4863 
L 1656 4863 
L 1656 0 
L 538 0 
L 538 4863 
z
" transform="scale(0.015625)"/>
     </defs>
     <use xlink:href="#DejaVuSans-Bold-43"/>
     <use xlink:href="#DejaVuSans-Bold-6f" transform="translate(73.388672 0)"/>
     <use xlink:href="#DejaVuSans-Bold-6e" transform="translate(142.089844 0)"/>
     <use xlink:href="#DejaVuSans-Bold-66" transform="translate(213.28125 0)"/>
     <use xlink:href="#DejaVuSans-Bold-69" transform="translate(256.787109 0)"/>
     <use xlink:href="#DejaVuSans-Bold-64" transform="translate(291.064453 0)"/>
     <use xlink:href="#DejaVuSans-Bold-65" transform="translate(362.646484 0)"/>
     <use xlink:href="#DejaVuSans-Bold-6e" transform="translate(430.46875 0)"/>
     <use xlink:href="#DejaVuSans-Bold-74" transform="translate(501.660156 0)"/>
     <use xlink:href="#DejaVuSans-Bold-6c" transform="translate(549.462891 0)"/>
     <use xlink:href="#DejaVuSans-Bold-79" transform="translate(583.740234 0)"/>
    </g>
   </g>
   <g id="text_2">
    <g id="patch_3">
     <path d="M 16.485586 152.623547 
L 187.634414 152.623547 
Q 190.609414 152.623547 190.609414 149.648547 
L 190.609414 131.904 
Q 190.609414 128.929 187.634414 128.929 
L 16.485586 128.929 
Q 13.510586 128.929 13.510586 131.904 
L 13.510586 149.648547 
Q 13.510586 152.623547 16.485586 152.623547 
z
" style="fill: #ffffff; opacity: 0.95; stroke: #6b9e6b; stroke-width: 1.2; stroke-linejoin: miter"/>
    </g>
    <!-- ABM identifies parameter regions where -->
    <g style="fill: #2d2d2d" transform="translate(16.485586 138.362672) scale(0.085 -0.085)">
     <defs>
      <path id="DejaVuSans-41" d="M 2188 4044 
L 1331 1722 
L 3047 1722 
L 2188 4044 
z
M 1831 4666 
L 2547 4666 
L 4325 0 
L 3669 0 
L 3244 1197 
L 1141 1197 
L 716 0 
L 50 0 
L 1831 4666 
z
" transform="scale(0.015625)"/>
      <path id="DejaVuSans-42" d="M 1259 2228 
L 1259 519 
L 2272 519 
Q 2781 519 3026 730 
Q 3272 941 3272 1375 
Q 3272 1813 3026 2020 
Q 2781 2228 2272 2228 
L 1259 2228 
z
M 1259 4147 
L 1259 2741 
L 2194 2741 
Q 2656 2741 2882 2914 
Q 3109 3088 3109 3444 
Q 3109 3797 2882 3972 
Q 2656 4147 2194 4147 
L 1259 4147 
z
M 628 4666 
L 2241 4666 
Q 2963 4666 3353 4366 
Q 3744 4066 3744 3513 
Q 3744 3084 3544 2831 
Q 3344 2578 2956 2516 
Q 3422 2416 3680 2098 
Q 3938 1781 3938 1306 
Q 3938 681 3513 340 
Q 3088 0 2303 0 
L 628 0 
L 628 4666 
z
" transform="scale(0.015625)"/>
      <path id="DejaVuSans-4d" d="M 628 4666 
L 1569 4666 
L 2759 1491 
L 3956 4666 
L 4897 4666 
L 4897 0 
L 4281 0 
L 4281 4097 
L 3078 897 
L 2444 897 
L 1241 4097 
L 1241 0 
L 628 0 
L 628 4666 
z
" transform="scale(0.015625)"/>
      <path id="DejaVuSans-20" transform="scale(0.015625)"/>
      <path id="DejaVuSans-69" d="M 603 3500 
L 1178 3500 
L 1178 0 
L 603 0 
L 603 3500 
z
M 603 4863 
L 1178 4863 
L 1178 4134 
L 603 4134 
L 603 4863 
z
" transform="scale(0.015625)"/>
      <path id="DejaVuSans-64" d="M 2906 2969 
L 2906 4863 
L 3481 4863 
L 3481 0 
L 2906 0 
L 2906 525 
Q 2725 213 2448 61 
Q 2172 -91 1784 -91 
Q 1150 -91 751 415 
Q 353 922 353 1747 
Q 353 2572 751 3078 
Q 1150 3584 1784 3584 
Q 2172 3584 2448 3432 
Q 2725 3281 2906 2969 
z
M 947 1747 
Q 947 1113 1208 752 
Q 1469 391 1925 391 
Q 2381 391 2643 752 
Q 2906 1113 2906 1747 
Q 2906 2381 2643 2742 
Q 2381 3103 1925 3103 
Q 1469 3103 1208 2742 
Q 947 2381 947 1747 
z
" transform="scale(0.015625)"/>
      <path id="DejaVuSans-65" d="M 3597 1894 
L 3597 1613 
L 953 1613 
Q 991 1019 1311 708 
Q 1631 397 2203 397 
Q 2534 397 2845 478 
Q 3156 559 3463 722 
L 3463 178 
Q 3153 47 2828 -22 
Q 2503 -91 2169 -91 
Q 1331 -91 842 396 
Q 353 884 353 1716 
Q 353 2575 817 3079 
Q 1281 3584 2069 3584 
Q 2775 3584 3186 3129 
Q 3597 2675 3597 1894 
z
M 3022 2063 
Q 3016 2534 2758 2815 
Q 2500 3097 2075 3097 
Q 1594 3097 1305 2825 
Q 1016 2553 972 2059 
L 3022 2063 
z
" transform="scale(0.015625)"/>
      <path id="DejaVuSans-6e" d="M 3513 2113 
L 3513 0 
L 2938 0 
L 2938 2094 
Q 2938 2591 2744 2837 
Q 2550 3084 2163 3084 
Q 1697 3084 1428 2787 
Q 1159 2491 1159 1978 
L 1159 0 
L 581 0 
L 581 3500 
L 1159 3500 
L 1159 2956 
Q 1366 3272 1645 3428 
Q 1925 3584 2291 3584 
Q 2894 3584 3203 3211 
Q 3513 2838 3513 2113 
z
" transform="scale(0.015625)"/>
      <path id="DejaVuSans-74" d="M 1172 4494 
L 1172 3500 
L 2356 3500 
L 2356 3053 
L 1172 3053 
L 1172 1153 
Q 1172 725 1289 603 
Q 1406 481 1766 481 
L 2356 481 
L 2356 0 
L 1766 0 
Q 1100 0 847 248 
Q 594 497 594 1153 
L 594 3053 
L 172 3053 
L 172 3500 
L 594 3500 
L 594 4494 
L 1172 4494 
z
" transform="scale(0.015625)"/>
      <path id="DejaVuSans-66" d="M 2375 4863 
L 2375 4384 
L 1825 4384 
Q 1516 4384 1395 4259 
Q 1275 4134 1275 3809 
L 1275 3500 
L 2222 3500 
L 2222 3053 
L 1275 3053 
L 1275 0 
L 697 0 
L 697 3053 
L 147 3053 
L 147 3500 
L 697 3500 
L 697 3744 
Q 697 4328 969 4595 
Q 1241 4863 1831 4863 
L 2375 4863 
z
" transform="scale(0.015625)"/>
      <path id="DejaVuSans-73" d="M 2834 3397 
L 2834 2853 
Q 2591 2978 2328 3040 
Q 2066 3103 1784 3103 
Q 1356 3103 1142 2972 
Q 928 2841 928 2578 
Q 928 2378 1081 2264 
Q 1234 2150 1697 2047 
L 1894 2003 
Q 2506 1872 2764 1633 
Q 3022 1394 3022 966 
Q 3022 478 2636 193 
Q 2250 -91 1575 -91 
Q 1294 -91 989 -36 
Q 684 19 347 128 
L 347 722 
Q 666 556 975 473 
Q 1284 391 1588 391 
Q 1994 391 2212 530 
Q 2431 669 2431 922 
Q 2431 1156 2273 1281 
Q 2116 1406 1581 1522 
L 1381 1569 
Q 847 1681 609 1914 
Q 372 2147 372 2553 
Q 372 3047 722 3315 
Q 1072 3584 1716 3584 
Q 2034 3584 2315 3537 
Q 2597 3491 2834 3397 
z
" transform="scale(0.015625)"/>
      <path id="DejaVuSans-70" d="M 1159 525 
L 1159 -1331 
L 581 -1331 
L 581 3500 
L 1159 3500 
L 1159 2969 
Q 1341 3281 1617 3432 
Q 1894 3584 2278 3584 
Q 2916 3584 3314 3078 
Q 3713 2572 3713 1747 
Q 3713 922 3314 415 
Q 2916 -91 2278 -91 
Q 1894 -91 1617 61 
Q 1341 213 1159 525 
z
M 3116 1747 
Q 3116 2381 2855 2742 
Q 2594 3103 2138 3103 
Q 1681 3103 1420 2742 
Q 1159 2381 1159 1747 
Q 1159 1113 1420 752 
Q 1681 391 2138 391 
Q 2594 391 2855 752 
Q 3116 1113 3116 1747 
z
" transform="scale(0.015625)"/>
      <path id="DejaVuSans-61" d="M 2194 1759 
Q 1497 1759 1228 1600 
Q 959 1441 959 1056 
Q 959 750 1161 570 
Q 1363 391 1709 391 
Q 2188 391 2477 730 
Q 2766 1069 2766 1631 
L 2766 1759 
L 2194 1759 
z
M 3341 1997 
L 3341 0 
L 2766 0 
L 2766 531 
Q 2569 213 2275 61 
Q 1981 -91 1556 -91 
Q 1019 -91 701 211 
Q 384 513 384 1019 
Q 384 1609 779 1909 
Q 1175 2209 1959 2209 
L 2766 2209 
L 2766 2266 
Q 2766 2663 2505 2880 
Q 2244 3097 1772 3097 
Q 1472 3097 1187 3025 
Q 903 2953 641 2809 
L 641 3341 
Q 956 3463 1253 3523 
Q 1550 3584 1831 3584 
Q 2591 3584 2966 3190 
Q 3341 2797 3341 1997 
z
" transform="scale(0.015625)"/>
      <path id="DejaVuSans-72" d="M 2631 2963 
Q 2534 3019 2420 3045 
Q 2306 3072 2169 3072 
Q 1681 3072 1420 2755 
Q 1159 2438 1159 1844 
L 1159 0 
L 581 0 
L 581 3500 
L 1159 3500 
L 1159 2956 
Q 1341 3275 1631 3429 
Q 1922 3584 2338 3584 
Q 2397 3584 2469 3576 
Q 2541 3569 2628 3553 
L 2631 2963 
z
" transform="scale(0.015625)"/>
      <path id="DejaVuSans-6d" d="M 3328 2828 
Q 3544 3216 3844 3400 
Q 4144 3584 4550 3584 
Q 5097 3584 5394 3201 
Q 5691 2819 5691 2113 
L 5691 0 
L 5113 0 
L 5113 2094 
Q 5113 2597 4934 2840 
Q 4756 3084 4391 3084 
Q 3944 3084 3684 2787 
Q 3425 2491 3425 1978 
L 3425 0 
L 2847 0 
L 2847 2094 
Q 2847 2600 2669 2842 
Q 2491 3084 2119 3084 
Q 1678 3084 1418 2786 
Q 1159 2488 1159 1978 
L 1159 0 
L 581 0 
L 581 3500 
L 1159 3500 
L 1159 2956 
Q 1356 3278 1631 3431 
Q 1906 3584 2284 3584 
Q 2666 3584 2933 3390 
Q 3200 3197 3328 2828 
z
" transform="scale(0.015625)"/>
      <path id="DejaVuSans-67" d="M 2906 1791 
Q 2906 2416 2648 2759 
Q 2391 3103 1925 3103 
Q 1463 3103 1205 2759 
Q 947 2416 947 1791 
Q 947 1169 1205 825 
Q 1463 481 1925 481 
Q 2391 481 2648 825 
Q 2906 1169 2906 1791 
z
M 3481 434 
Q 3481 -459 3084 -895 
Q 2688 -1331 1869 -1331 
Q 1566 -1331 1297 -1286 
Q 1028 -1241 775 -1147 
L 775 -588 
Q 1028 -725 1275 -790 
Q 1522 -856 1778 -856 
Q 2344 -856 2625 -561 
Q 2906 -266 2906 331 
L 2906 616 
Q 2728 306 2450 153 
Q 2172 0 1784 0 
Q 1141 0 747 490 
Q 353 981 353 1791 
Q 353 2603 747 3093 
Q 1141 3584 1784 3584 
Q 2172 3584 2450 3431 
Q 2728 3278 2906 2969 
L 2906 3500 
L 3481 3500 
L 3481 434 
z
" transform="scale(0.015625)"/>
      <path id="DejaVuSans-6f" d="M 1959 3097 
Q 1497 3097 1228 2736 
Q 959 2375 959 1747 
Q 959 1119 1226 758 
Q 1494 397 1959 397 
Q 2419 397 2687 759 
Q 2956 1122 2956 1747 
Q 2956 2369 2687 2733 
Q 2419 3097 1959 3097 
z
M 1959 3584 
Q 2709 3584 3137 3096 
Q 3566 2609 3566 1747 
Q 3566 888 3137 398 
Q 2709 -91 1959 -91 
Q 1206 -91 779 398 
Q 353 888 353 1747 
Q 353 2609 779 3096 
Q 1206 3584 1959 3584 
z
" transform="scale(0.015625)"/>
      <path id="DejaVuSans-77" d="M 269 3500 
L 844 3500 
L 1563 769 
L 2278 3500 
L 2956 3500 
L 3675 769 
L 4391 3500 
L 4966 3500 
L 4050 0 
L 3372 0 
L 2619 2869 
L 1863 0 
L 1184 0 
L 269 3500 
z
" transform="scale(0.015625)"/>
      <path id="DejaVuSans-68" d="M 3513 2113 
L 3513 0 
L 2938 0 
L 2938 2094 
Q 2938 2591 2744 2837 
Q 2550 3084 2163 3084 
Q 1697 3084 1428 2787 
Q 1159 2491 1159 1978 
L 1159 0 
L 581 0 
L 581 4863 
L 1159 4863 
L 1159 2956 
Q 1366 3272 1645 3428 
Q 1925 3584 2291 3584 
Q 2894 3584 3203 3211 
Q 3513 2838 3513 2113 
z
" transform="scale(0.015625)"/>
     </defs>
     <use xlink:href="#DejaVuSans-41"/>
     <use xlink:href="#DejaVuSans-42" transform="translate(68.408203 0)"/>
     <use xlink:href="#DejaVuSans-4d" transform="translate(137.011719 0)"/>
     <use xlink:href="#DejaVuSans-20" transform="translate(223.291016 0)"/>
     <use xlink:href="#DejaVuSans-69" transform="translate(255.078125 0)"/>
     <use xlink:href="#DejaVuSans-64" transform="translate(282.861328 0)"/>
     <use xlink:href="#DejaVuSans-65" transform="translate(346.337891 0)"/>
     <use xlink:href="#DejaVuSans-6e" transform="translate(407.861328 0)"/>
     <use xlink:href="#DejaVuSans-74" transform="translate(471.240234 0)"/>
     <use xlink:href="#DejaVuSans-69" transform="translate(510.449219 0)"/>
     <use xlink:href="#DejaVuSans-66" transform="translate(538.232422 0)"/>
     <use xlink:href="#DejaVuSans-69" transform="translate(573.4375 0)"/>
     <use xlink:href="#DejaVuSans-65" transform="translate(601.220703 0)"/>
     <use xlink:href="#DejaVuSans-73" transform="translate(662.744141 0)"/>
     <use xlink:href="#DejaVuSans-20" transform="translate(714.84375 0)"/>
     <use xlink:href="#DejaVuSans-70" transform="translate(746.630859 0)"/>
     <use xlink:href="#DejaVuSans-61" transform="translate(810.107422 0)"/>
     <use xlink:href="#DejaVuSans-72" transform="translate(871.386719 0)"/>
     <use xlink:href="#DejaVuSans-61" transform="translate(912.5 0)"/>
     <use xlink:href="#DejaVuSans-6d" transform="translate(973.779297 0)"/>
     <use xlink:href="#DejaVuSans-65" transform="translate(1071.191406 0)"/>
     <use xlink:href="#DejaVuSans-74" transform="translate(1132.714844 0)"/>
     <use xlink:href="#DejaVuSans-65" transform="translate(1171.923828 0)"/>
     <use xlink:href="#DejaVuSans-72" transform="translate(1233.447266 0)"/>
     <use xlink:href="#DejaVuSans-20" transform="translate(1274.560547 0)"/>
     <use xlink:href="#DejaVuSans-72" transform="translate(1306.347656 0)"/>
     <use xlink:href="#DejaVuSans-65" transform="translate(1345.210938 0)"/>
     <use xlink:href="#DejaVuSans-67" transform="translate(1406.734375 0)"/>
     <use xlink:href="#DejaVuSans-69" transform="translate(1470.210938 0)"/>
     <use xlink:href="#DejaVuSans-6f" transform="translate(1497.994141 0)"/>
     <use xlink:href="#DejaVuSans-6e" transform="translate(1559.175781 0)"/>
     <use xlink:href="#DejaVuSans-73" transform="translate(1622.554688 0)"/>
     <use xlink:href="#DejaVuSans-20" transform="translate(1674.654297 0)"/>
     <use xlink:href="#DejaVuSans-77" transform="translate(1706.441406 0)"/>
     <use xlink:href="#DejaVuSans-68" transform="translate(1788.228516 0)"/>
     <use xlink:href="#DejaVuSans-65" transform="translate(1851.607422 0)"/>
     <use xlink:href="#DejaVuSans-72" transform="translate(1913.130859 0)"/>
     <use xlink:href="#DejaVuSans-65" transform="translate(1951.994141 0)"/>
    </g>
    <!-- higher delegation → higher total labor -->
    <g style="fill: #2d2d2d" transform="translate(21.388359 147.880812) scale(0.085 -0.085)">
     <defs>
      <path id="DejaVuSans-6c" d="M 603 4863 
L 1178 4863 
L 1178 0 
L 603 0 
L 603 4863 
z
" transform="scale(0.015625)"/>
      <path id="DejaVuSans-2192" d="M 5050 2147 
L 5050 1866 
L 3822 638 
L 3447 1013 
L 4175 1741 
L 366 1741 
L 366 2272 
L 4175 2272 
L 3447 3000 
L 3822 3375 
L 5050 2147 
z
" transform="scale(0.015625)"/>
      <path id="DejaVuSans-62" d="M 3116 1747 
Q 3116 2381 2855 2742 
Q 2594 3103 2138 3103 
Q 1681 3103 1420 2742 
Q 1159 2381 1159 1747 
Q 1159 1113 1420 752 
Q 1681 391 2138 391 
Q 2594 391 2855 752 
Q 3116 1113 3116 1747 
z
M 1159 2969 
Q 1341 3281 1617 3432 
Q 1894 3584 2278 3584 
Q 2916 3584 3314 3078 
Q 3713 2572 3713 1747 
Q 3713 922 3314 415 
Q 2916 -91 2278 -91 
Q 1894 -91 1617 61 
Q 1341 213 1159 525 
L 1159 0 
L 581 0 
L 581 4863 
L 1159 4863 
L 1159 2969 
z
" transform="scale(0.015625)"/>
     </defs>
     <use xlink:href="#DejaVuSans-68"/>
     <use xlink:href="#DejaVuSans-69" transform="translate(63.378906 0)"/>
     <use xlink:href="#DejaVuSans-67" transform="translate(91.162109 0)"/>
     <use xlink:href="#DejaVuSans-68" transform="translate(154.638672 0)"/>
     <use xlink:href="#DejaVuSans-65" transform="translate(218.017578 0)"/>
     <use xlink:href="#DejaVuSans-72" transform="translate(279.541016 0)"/>
     <use xlink:href="#DejaVuSans-20" transform="translate(320.654297 0)"/>
     <use xlink:href="#DejaVuSans-64" transform="translate(352.441406 0)"/>
     <use xlink:href="#DejaVuSans-65" transform="translate(415.917969 0)"/>
     <use xlink:href="#DejaVuSans-6c" transform="translate(477.441406 0)"/>
     <use xlink:href="#DejaVuSans-65" transform="translate(505.224609 0)"/>
     <use xlink:href="#DejaVuSans-67" transform="translate(566.748047 0)"/>
     <use xlink:href="#DejaVuSans-61" transform="translate(630.224609 0)"/>
     <use xlink:href="#DejaVuSans-74" transform="translate(691.503906 0)"/>
     <use xlink:href="#DejaVuSans-69" transform="translate(730.712891 0)"/>
     <use xlink:href="#DejaVuSans-6f" transform="translate(758.496094 0)"/>
     <use xlink:href="#DejaVuSans-6e" transform="translate(819.677734 0)"/>
     <use xlink:href="#DejaVuSans-20" transform="translate(883.056641 0)"/>
     <use xlink:href="#DejaVuSans-2192" transform="translate(914.84375 0)"/>
     <use xlink:href="#DejaVuSans-20" transform="translate(998.632812 0)"/>
     <use xlink:href="#DejaVuSans-68" transform="translate(1030.419922 0)"/>
     <use xlink:href="#DejaVuSans-69" transform="translate(1093.798828 0)"/>
     <use xlink:href="#DejaVuSans-67" transform="translate(1121.582031 0)"/>
     <use xlink:href="#DejaVuSans-68" transform="translate(1185.058594 0)"/>
     <use xlink:href="#DejaVuSans-65" transform="translate(1248.4375 0)"/>
     <use xlink:href="#DejaVuSans-72" transform="translate(1309.960938 0)"/>
     <use xlink:href="#DejaVuSans-20" transform="translate(1351.074219 0)"/>
     <use xlink:href="#DejaVuSans-74" transform="translate(1382.861328 0)"/>
     <use xlink:href="#DejaVuSans-6f" transform="translate(1422.070312 0)"/>
     <use xlink:href="#DejaVuSans-74" transform="translate(1483.251953 0)"/>
     <use xlink:href="#DejaVuSans-61" transform="translate(1522.460938 0)"/>
     <use xlink:href="#DejaVuSans-6c" transform="translate(1583.740234 0)"/>
     <use xlink:href="#DejaVuSans-20" transform="translate(1611.523438 0)"/>
     <use xlink:href="#DejaVuSans-6c" transform="translate(1643.310547 0)"/>
     <use xlink:href="#DejaVuSans-61" transform="translate(1671.09375 0)"/>
     <use xlink:href="#DejaVuSans-62" transform="translate(1732.373047 0)"/>
     <use xlink:href="#DejaVuSans-6f" transform="translate(1795.849609 0)"/>
     <use xlink:href="#DejaVuSans-72" transform="translate(1857.03125 0)"/>
    </g>
   </g>
   <g id="text_3">
    <g id="patch_4">
     <path d="M 19.171719 221.923547 
L 184.948281 221.923547 
Q 187.923281 221.923547 187.923281 218.948547 
L 187.923281 201.204 
Q 187.923281 198.229 184.948281 198.229 
L 19.171719 198.229 
Q 16.196719 198.229 16.196719 201.204 
L 16.196719 218.948547 
Q 16.196719 221.923547 19.171719 221.923547 
z
" style="fill: #ffffff; opacity: 0.95; stroke: #6b9e6b; stroke-width: 1.2; stroke-linejoin: miter"/>
    </g>
    <!-- ABM compares stress, labor, inequality -->
    <g style="fill: #2d2d2d" transform="translate(19.171719 207.662672) scale(0.085 -0.085)">
     <defs>
      <path id="DejaVuSans-63" d="M 3122 3366 
L 3122 2828 
Q 2878 2963 2633 3030 
Q 2388 3097 2138 3097 
Q 1578 3097 1268 2742 
Q 959 2388 959 1747 
Q 959 1106 1268 751 
Q 1578 397 2138 397 
Q 2388 397 2633 464 
Q 2878 531 3122 666 
L 3122 134 
Q 2881 22 2623 -34 
Q 2366 -91 2075 -91 
Q 1284 -91 818 406 
Q 353 903 353 1747 
Q 353 2603 823 3093 
Q 1294 3584 2113 3584 
Q 2378 3584 2631 3529 
Q 2884 3475 3122 3366 
z
" transform="scale(0.015625)"/>
      <path id="DejaVuSans-2c" d="M 750 794 
L 1409 794 
L 1409 256 
L 897 -744 
L 494 -744 
L 750 256 
L 750 794 
z
" transform="scale(0.015625)"/>
      <path id="DejaVuSans-71" d="M 947 1747 
Q 947 1113 1208 752 
Q 1469 391 1925 391 
Q 2381 391 2643 752 
Q 2906 1113 2906 1747 
Q 2906 2381 2643 2742 
Q 2381 3103 1925 3103 
Q 1469 3103 1208 2742 
Q 947 2381 947 1747 
z
M 2906 525 
Q 2725 213 2448 61 
Q 2172 -91 1784 -91 
Q 1150 -91 751 415 
Q 353 922 353 1747 
Q 353 2572 751 3078 
Q 1150 3584 1784 3584 
Q 2172 3584 2448 3432 
Q 2725 3281 2906 2969 
L 2906 3500 
L 3481 3500 
L 3481 -1331 
L 2906 -1331 
L 2906 525 
z
" transform="scale(0.015625)"/>
      <path id="DejaVuSans-75" d="M 544 1381 
L 544 3500 
L 1119 3500 
L 1119 1403 
Q 1119 906 1312 657 
Q 1506 409 1894 409 
Q 2359 409 2629 706 
Q 2900 1003 2900 1516 
L 2900 3500 
L 3475 3500 
L 3475 0 
L 2900 0 
L 2900 538 
Q 2691 219 2414 64 
Q 2138 -91 1772 -91 
Q 1169 -91 856 284 
Q 544 659 544 1381 
z
M 1991 3584 
L 1991 3584 
z
" transform="scale(0.015625)"/>
      <path id="DejaVuSans-79" d="M 2059 -325 
Q 1816 -950 1584 -1140 
Q 1353 -1331 966 -1331 
L 506 -1331 
L 506 -850 
L 844 -850 
Q 1081 -850 1212 -737 
Q 1344 -625 1503 -206 
L 1606 56 
L 191 3500 
L 800 3500 
L 1894 763 
L 2988 3500 
L 3597 3500 
L 2059 -325 
z
" transform="scale(0.015625)"/>
     </defs>
     <use xlink:href="#DejaVuSans-41"/>
     <use xlink:href="#DejaVuSans-42" transform="translate(68.408203 0)"/>
     <use xlink:href="#DejaVuSans-4d" transform="translate(137.011719 0)"/>
     <use xlink:href="#DejaVuSans-20" transform="translate(223.291016 0)"/>
     <use xlink:href="#DejaVuSans-63" transform="translate(255.078125 0)"/>
     <use xlink:href="#DejaVuSans-6f" transform="translate(310.058594 0)"/>
     <use xlink:href="#DejaVuSans-6d" transform="translate(371.240234 0)"/>
     <use xlink:href="#DejaVuSans-70" transform="translate(468.652344 0)"/>
     <use xlink:href="#DejaVuSans-61" transform="translate(532.128906 0)"/>
     <use xlink:href="#DejaVuSans-72" transform="translate(593.408203 0)"/>
     <use xlink:href="#DejaVuSans-65" transform="translate(632.271484 0)"/>
     <use xlink:href="#DejaVuSans-73" transform="translate(693.794922 0)"/>
     <use xlink:href="#DejaVuSans-20" transform="translate(745.894531 0)"/>
     <use xlink:href="#DejaVuSans-73" transform="translate(777.681641 0)"/>
     <use xlink:href="#DejaVuSans-74" transform="translate(829.78125 0)"/>
     <use xlink:href="#DejaVuSans-72" transform="translate(868.990234 0)"/>
     <use xlink:href="#DejaVuSans-65" transform="translate(907.853516 0)"/>
     <use xlink:href="#DejaVuSans-73" transform="translate(969.376953 0)"/>
     <use xlink:href="#DejaVuSans-73" transform="translate(1021.476562 0)"/>
     <use xlink:href="#DejaVuSans-2c" transform="translate(1073.576172 0)"/>
     <use xlink:href="#DejaVuSans-20" transform="translate(1105.363281 0)"/>
     <use xlink:href="#DejaVuSans-6c" transform="translate(1137.150391 0)"/>
     <use xlink:href="#DejaVuSans-61" transform="translate(1164.933594 0)"/>
     <use xlink:href="#DejaVuSans-62" transform="translate(1226.212891 0)"/>
     <use xlink:href="#DejaVuSans-6f" transform="translate(1289.689453 0)"/>
     <use xlink:href="#DejaVuSans-72" transform="translate(1350.871094 0)"/>
     <use xlink:href="#DejaVuSans-2c" transform="translate(1391.984375 0)"/>
     <use xlink:href="#DejaVuSans-20" transform="translate(1423.771484 0)"/>
     <use xlink:href="#DejaVuSans-69" transform="translate(1455.558594 0)"/>
     <use xlink:href="#DejaVuSans-6e" transform="translate(1483.341797 0)"/>
     <use xlink:href="#DejaVuSans-65" transform="translate(1546.720703 0)"/>
     <use xlink:href="#DejaVuSans-71" transform="translate(1608.244141 0)"/>
     <use xlink:href="#DejaVuSans-75" transform="translate(1671.720703 0)"/>
     <use xlink:href="#DejaVuSans-61" transform="translate(1735.099609 0)"/>
     <use xlink:href="#DejaVuSans-6c" transform="translate(1796.378906 0)"/>
     <use xlink:href="#DejaVuSans-69" transform="translate(1824.162109 0)"/>
     <use xlink:href="#DejaVuSans-74" transform="translate(1851.945312 0)"/>
     <use xlink:href="#DejaVuSans-79" transform="translate(1891.154297 0)"/>
    </g>
    <!-- evolution under different configs -->
    <g style="fill: #2d2d2d" transform="translate(32.482852 217.180812) scale(0.085 -0.085)">
     <defs>
      <path id="DejaVuSans-76" d="M 191 3500 
L 800 3500 
L 1894 563 
L 2988 3500 
L 3597 3500 
L 2284 0 
L 1503 0 
L 191 3500 
z
" transform="scale(0.015625)"/>
     </defs>
     <use xlink:href="#DejaVuSans-65"/>
     <use xlink:href="#DejaVuSans-76" transform="translate(61.523438 0)"/>
     <use xlink:href="#DejaVuSans-6f" transform="translate(120.703125 0)"/>
     <use xlink:href="#DejaVuSans-6c" transform="translate(181.884766 0)"/>
     <use xlink:href="#DejaVuSans-75" transform="translate(209.667969 0)"/>
     <use xlink:href="#DejaVuSans-74" transform="translate(273.046875 0)"/>
     <use xlink:href="#DejaVuSans-69" transform="translate(312.255859 0)"/>
     <use xlink:href="#DejaVuSans-6f" transform="translate(340.039062 0)"/>
     <use xlink:href="#DejaVuSans-6e" transform="translate(401.220703 0)"/>
     <use xlink:href="#DejaVuSans-20" transform="translate(464.599609 0)"/>
     <use xlink:href="#DejaVuSans-75" transform="translate(496.386719 0)"/>
     <use xlink:href="#DejaVuSans-6e" transform="translate(559.765625 0)"/>
     <use xlink:href="#DejaVuSans-64" transform="translate(623.144531 0)"/>
     <use xlink:href="#DejaVuSans-65" transform="translate(686.621094 0)"/>
     <use xlink:href="#DejaVuSans-72" transform="translate(748.144531 0)"/>
     <use xlink:href="#DejaVuSans-20" transform="translate(789.257812 0)"/>
     <use xlink:href="#DejaVuSans-64" transform="translate(821.044922 0)"/>
     <use xlink:href="#DejaVuSans-69" transform="translate(884.521484 0)"/>
     <use xlink:href="#DejaVuSans-66" transform="translate(912.304688 0)"/>
     <use xlink:href="#DejaVuSans-66" transform="translate(947.509766 0)"/>
     <use xlink:href="#DejaVuSans-65" transform="translate(982.714844 0)"/>
     <use xlink:href="#DejaVuSans-72" transform="translate(1044.238281 0)"/>
     <use xlink:href="#DejaVuSans-65" transform="translate(1083.101562 0)"/>
     <use xlink:href="#DejaVuSans-6e" transform="translate(1144.625 0)"/>
     <use xlink:href="#DejaVuSans-74" transform="translate(1208.003906 0)"/>
     <use xlink:href="#DejaVuSans-20" transform="translate(1247.212891 0)"/>
     <use xlink:href="#DejaVuSans-63" transform="translate(1279 0)"/>
     <use xlink:href="#DejaVuSans-6f" transform="translate(1333.980469 0)"/>
     <use xlink:href="#DejaVuSans-6e" transform="translate(1395.162109 0)"/>
     <use xlink:href="#DejaVuSans-66" transform="translate(1458.541016 0)"/>
     <use xlink:href="#DejaVuSans-69" transform="translate(1493.746094 0)"/>
     <use xlink:href="#DejaVuSans-67" transform="translate(1521.529297 0)"/>
     <use xlink:href="#DejaVuSans-73" transform="translate(1585.005859 0)"/>
    </g>
   </g>
   <g id="text_4">
    <g id="patch_5">
     <path d="M 16.047305 291.223547 
L 188.072695 291.223547 
Q 191.047695 291.223547 191.047695 288.248547 
L 191.047695 270.504 
Q 191.047695 267.529 188.072695 267.529 
L 16.047305 267.529 
Q 13.072305 267.529 13.072305 270.504 
L 13.072305 288.248547 
Q 13.072305 291.223547 16.047305 291.223547 
z
" style="fill: #ffffff; opacity: 0.95; stroke: #6b9e6b; stroke-width: 1.2; stroke-linejoin: miter"/>
    </g>
    <!-- ABM tests whether moderate delegation -->
    <g style="fill: #2d2d2d" transform="translate(16.047305 276.962672) scale(0.085 -0.085)">
     <use xlink:href="#DejaVuSans-41"/>
     <use xlink:href="#DejaVuSans-42" transform="translate(68.408203 0)"/>
     <use xlink:href="#DejaVuSans-4d" transform="translate(137.011719 0)"/>
     <use xlink:href="#DejaVuSans-20" transform="translate(223.291016 0)"/>
     <use xlink:href="#DejaVuSans-74" transform="translate(255.078125 0)"/>
     <use xlink:href="#DejaVuSans-65" transform="translate(294.287109 0)"/>
     <use xlink:href="#DejaVuSans-73" transform="translate(355.810547 0)"/>
     <use xlink:href="#DejaVuSans-74" transform="translate(407.910156 0)"/>
     <use xlink:href="#DejaVuSans-73" transform="translate(447.119141 0)"/>
     <use xlink:href="#DejaVuSans-20" transform="translate(499.21875 0)"/>
     <use xlink:href="#DejaVuSans-77" transform="translate(531.005859 0)"/>
     <use xlink:href="#DejaVuSans-68" transform="translate(612.792969 0)"/>
     <use xlink:href="#DejaVuSans-65" transform="translate(676.171875 0)"/>
     <use xlink:href="#DejaVuSans-74" transform="translate(737.695312 0)"/>
     <use xlink:href="#DejaVuSans-68" transform="translate(776.904297 0)"/>
     <use xlink:href="#DejaVuSans-65" transform="translate(840.283203 0)"/>
     <use xlink:href="#DejaVuSans-72" transform="translate(901.806641 0)"/>
     <use xlink:href="#DejaVuSans-20" transform="translate(942.919922 0)"/>
     <use xlink:href="#DejaVuSans-6d" transform="translate(974.707031 0)"/>
     <use xlink:href="#DejaVuSans-6f" transform="translate(1072.119141 0)"/>
     <use xlink:href="#DejaVuSans-64" transform="translate(1133.300781 0)"/>
     <use xlink:href="#DejaVuSans-65" transform="translate(1196.777344 0)"/>
     <use xlink:href="#DejaVuSans-72" transform="translate(1258.300781 0)"/>
     <use xlink:href="#DejaVuSans-61" transform="translate(1299.414062 0)"/>
     <use xlink:href="#DejaVuSans-74" transform="translate(1360.693359 0)"/>
     <use xlink:href="#DejaVuSans-65" transform="translate(1399.902344 0)"/>
     <use xlink:href="#DejaVuSans-20" transform="translate(1461.425781 0)"/>
     <use xlink:href="#DejaVuSans-64" transform="translate(1493.212891 0)"/>
     <use xlink:href="#DejaVuSans-65" transform="translate(1556.689453 0)"/>
     <use xlink:href="#DejaVuSans-6c" transform="translate(1618.212891 0)"/>
     <use xlink:href="#DejaVuSans-65" transform="translate(1645.996094 0)"/>
     <use xlink:href="#DejaVuSans-67" transform="translate(1707.519531 0)"/>
     <use xlink:href="#DejaVuSans-61" transform="translate(1770.996094 0)"/>
     <use xlink:href="#DejaVuSans-74" transform="translate(1832.275391 0)"/>
     <use xlink:href="#DejaVuSans-69" transform="translate(1871.484375 0)"/>
     <use xlink:href="#DejaVuSans-6f" transform="translate(1899.267578 0)"/>
     <use xlink:href="#DejaVuSans-6e" transform="translate(1960.449219 0)"/>
    </g>
    <!-- states remain stable -->
    <g style="fill: #2d2d2d" transform="translate(58.51543 286.480812) scale(0.085 -0.085)">
     <use xlink:href="#DejaVuSans-73"/>
     <use xlink:href="#DejaVuSans-74" transform="translate(52.099609 0)"/>
     <use xlink:href="#DejaVuSans-61" transform="translate(91.308594 0)"/>
     <use xlink:href="#DejaVuSans-74" transform="translate(152.587891 0)"/>
     <use xlink:href="#DejaVuSans-65" transform="translate(191.796875 0)"/>
     <use xlink:href="#DejaVuSans-73" transform="translate(253.320312 0)"/>
     <use xlink:href="#DejaVuSans-20" transform="translate(305.419922 0)"/>
     <use xlink:href="#DejaVuSans-72" transform="translate(337.207031 0)"/>
     <use xlink:href="#DejaVuSans-65" transform="translate(376.070312 0)"/>
     <use xlink:href="#DejaVuSans-6d" transform="translate(437.59375 0)"/>
     <use xlink:href="#DejaVuSans-61" transform="translate(535.005859 0)"/>
     <use xlink:href="#DejaVuSans-69" transform="translate(596.285156 0)"/>
     <use xlink:href="#DejaVuSans-6e" transform="translate(624.068359 0)"/>
     <use xlink:href="#DejaVuSans-20" transform="translate(687.447266 0)"/>
     <use xlink:href="#DejaVuSans-73" transform="translate(719.234375 0)"/>
     <use xlink:href="#DejaVuSans-74" transform="translate(771.333984 0)"/>
     <use xlink:href="#DejaVuSans-61" transform="translate(810.542969 0)"/>
     <use xlink:href="#DejaVuSans-62" transform="translate(871.822266 0)"/>
     <use xlink:href="#DejaVuSans-6c" transform="translate(935.298828 0)"/>
     <use xlink:href="#DejaVuSans-65" transform="translate(963.082031 0)"/>
    </g>
   </g>
   <g id="text_5">
    <g id="patch_6">
     <path d="M 244.947187 95.227125 
L 327.452812 95.227125 
Q 332.252813 95.227125 332.252813 90.427125 
L 332.252813 65.28225 
Q 332.252813 60.48225 327.452812 60.48225 
L 244.947187 60.48225 
Q 240.147187 60.48225 240.147187 65.28225 
L 240.147187 90.427125 
Q 240.147187 95.227125 244.947187 95.227125 
z
" style="fill: #e8a855; opacity: 0.9"/>
    </g>
    <!-- Can Say -->
    <g style="fill: #ffffff" transform="translate(259.29375 74.400375) scale(0.12 -0.12)">
     <use xlink:href="#DejaVuSans-Bold-43"/>
     <use xlink:href="#DejaVuSans-Bold-61" transform="translate(73.388672 0)"/>
     <use xlink:href="#DejaVuSans-Bold-6e" transform="translate(140.869141 0)"/>
     <use xlink:href="#DejaVuSans-Bold-20" transform="translate(212.060547 0)"/>
     <use xlink:href="#DejaVuSans-Bold-53" transform="translate(246.875 0)"/>
     <use xlink:href="#DejaVuSans-Bold-61" transform="translate(318.896484 0)"/>
     <use xlink:href="#DejaVuSans-Bold-79" transform="translate(383.251953 0)"/>
    </g>
    <!-- With Caveat -->
    <g style="fill: #ffffff" transform="translate(244.947187 87.9315) scale(0.12 -0.12)">
     <defs>
      <path id="DejaVuSans-Bold-57" d="M 191 4666 
L 1344 4666 
L 2150 1275 
L 2950 4666 
L 4109 4666 
L 4909 1275 
L 5716 4666 
L 6859 4666 
L 5759 0 
L 4372 0 
L 3525 3547 
L 2688 0 
L 1300 0 
L 191 4666 
z
" transform="scale(0.015625)"/>
      <path id="DejaVuSans-Bold-68" d="M 4056 2131 
L 4056 0 
L 2931 0 
L 2931 347 
L 2931 1625 
Q 2931 2084 2911 2256 
Q 2891 2428 2841 2509 
Q 2775 2619 2662 2680 
Q 2550 2741 2406 2741 
Q 2056 2741 1856 2470 
Q 1656 2200 1656 1722 
L 1656 0 
L 538 0 
L 538 4863 
L 1656 4863 
L 1656 2988 
Q 1909 3294 2193 3439 
Q 2478 3584 2822 3584 
Q 3428 3584 3742 3212 
Q 4056 2841 4056 2131 
z
" transform="scale(0.015625)"/>
      <path id="DejaVuSans-Bold-76" d="M 97 3500 
L 1216 3500 
L 2088 1081 
L 2956 3500 
L 4078 3500 
L 2700 0 
L 1472 0 
L 97 3500 
z
" transform="scale(0.015625)"/>
     </defs>
     <use xlink:href="#DejaVuSans-Bold-57"/>
     <use xlink:href="#DejaVuSans-Bold-69" transform="translate(110.302734 0)"/>
     <use xlink:href="#DejaVuSans-Bold-74" transform="translate(144.580078 0)"/>
     <use xlink:href="#DejaVuSans-Bold-68" transform="translate(192.382812 0)"/>
     <use xlink:href="#DejaVuSans-Bold-20" transform="translate(263.574219 0)"/>
     <use xlink:href="#DejaVuSans-Bold-43" transform="translate(298.388672 0)"/>
     <use xlink:href="#DejaVuSans-Bold-61" transform="translate(371.777344 0)"/>
     <use xlink:href="#DejaVuSans-Bold-76" transform="translate(439.257812 0)"/>
     <use xlink:href="#DejaVuSans-Bold-65" transform="translate(504.443359 0)"/>
     <use xlink:href="#DejaVuSans-Bold-61" transform="translate(572.265625 0)"/>
     <use xlink:href="#DejaVuSans-Bold-74" transform="translate(639.746094 0)"/>
    </g>
   </g>
   <g id="text_6">
    <g id="patch_7">
     <path d="M 195.346953 152.623547 
L 377.053047 152.623547 
Q 380.028047 152.623547 380.028047 149.648547 
L 380.028047 131.904 
Q 380.028047 128.929 377.053047 128.929 
L 195.346953 128.929 
Q 192.371953 128.929 192.371953 131.904 
L 192.371953 149.648547 
Q 192.371953 152.623547 195.346953 152.623547 
z
" style="fill: #ffffff; opacity: 0.95; stroke: #e8a855; stroke-width: 1.2; stroke-linejoin: miter"/>
    </g>
    <!-- Lower prices push toward more delegation -->
    <g style="fill: #2d2d2d" transform="translate(195.346953 138.362672) scale(0.085 -0.085)">
     <defs>
      <path id="DejaVuSans-4c" d="M 628 4666 
L 1259 4666 
L 1259 531 
L 3531 531 
L 3531 0 
L 628 0 
L 628 4666 
z
" transform="scale(0.015625)"/>
     </defs>
     <use xlink:href="#DejaVuSans-4c"/>
     <use xlink:href="#DejaVuSans-6f" transform="translate(53.962891 0)"/>
     <use xlink:href="#DejaVuSans-77" transform="translate(115.144531 0)"/>
     <use xlink:href="#DejaVuSans-65" transform="translate(196.931641 0)"/>
     <use xlink:href="#DejaVuSans-72" transform="translate(258.455078 0)"/>
     <use xlink:href="#DejaVuSans-20" transform="translate(299.568359 0)"/>
     <use xlink:href="#DejaVuSans-70" transform="translate(331.355469 0)"/>
     <use xlink:href="#DejaVuSans-72" transform="translate(394.832031 0)"/>
     <use xlink:href="#DejaVuSans-69" transform="translate(435.945312 0)"/>
     <use xlink:href="#DejaVuSans-63" transform="translate(463.728516 0)"/>
     <use xlink:href="#DejaVuSans-65" transform="translate(518.708984 0)"/>
     <use xlink:href="#DejaVuSans-73" transform="translate(580.232422 0)"/>
     <use xlink:href="#DejaVuSans-20" transform="translate(632.332031 0)"/>
     <use xlink:href="#DejaVuSans-70" transform="translate(664.119141 0)"/>
     <use xlink:href="#DejaVuSans-75" transform="translate(727.595703 0)"/>
     <use xlink:href="#DejaVuSans-73" transform="translate(790.974609 0)"/>
     <use xlink:href="#DejaVuSans-68" transform="translate(843.074219 0)"/>
     <use xlink:href="#DejaVuSans-20" transform="translate(906.453125 0)"/>
     <use xlink:href="#DejaVuSans-74" transform="translate(938.240234 0)"/>
     <use xlink:href="#DejaVuSans-6f" transform="translate(977.449219 0)"/>
     <use xlink:href="#DejaVuSans-77" transform="translate(1038.630859 0)"/>
     <use xlink:href="#DejaVuSans-61" transform="translate(1120.417969 0)"/>
     <use xlink:href="#DejaVuSans-72" transform="translate(1181.697266 0)"/>
     <use xlink:href="#DejaVuSans-64" transform="translate(1221.060547 0)"/>
     <use xlink:href="#DejaVuSans-20" transform="translate(1284.537109 0)"/>
     <use xlink:href="#DejaVuSans-6d" transform="translate(1316.324219 0)"/>
     <use xlink:href="#DejaVuSans-6f" transform="translate(1413.736328 0)"/>
     <use xlink:href="#DejaVuSans-72" transform="translate(1474.917969 0)"/>
     <use xlink:href="#DejaVuSans-65" transform="translate(1513.78125 0)"/>
     <use xlink:href="#DejaVuSans-20" transform="translate(1575.304688 0)"/>
     <use xlink:href="#DejaVuSans-64" transform="translate(1607.091797 0)"/>
     <use xlink:href="#DejaVuSans-65" transform="translate(1670.568359 0)"/>
     <use xlink:href="#DejaVuSans-6c" transform="translate(1732.091797 0)"/>
     <use xlink:href="#DejaVuSans-65" transform="translate(1759.875 0)"/>
     <use xlink:href="#DejaVuSans-67" transform="translate(1821.398438 0)"/>
     <use xlink:href="#DejaVuSans-61" transform="translate(1884.875 0)"/>
     <use xlink:href="#DejaVuSans-74" transform="translate(1946.154297 0)"/>
     <use xlink:href="#DejaVuSans-69" transform="translate(1985.363281 0)"/>
     <use xlink:href="#DejaVuSans-6f" transform="translate(2013.146484 0)"/>
     <use xlink:href="#DejaVuSans-6e" transform="translate(2074.328125 0)"/>
    </g>
    <!-- (exogenous experiment only) -->
    <g style="fill: #2d2d2d" transform="translate(223.742266 147.880812) scale(0.085 -0.085)">
     <defs>
      <path id="DejaVuSans-28" d="M 1984 4856 
Q 1566 4138 1362 3434 
Q 1159 2731 1159 2009 
Q 1159 1288 1364 580 
Q 1569 -128 1984 -844 
L 1484 -844 
Q 1016 -109 783 600 
Q 550 1309 550 2009 
Q 550 2706 781 3412 
Q 1013 4119 1484 4856 
L 1984 4856 
z
" transform="scale(0.015625)"/>
      <path id="DejaVuSans-78" d="M 3513 3500 
L 2247 1797 
L 3578 0 
L 2900 0 
L 1881 1375 
L 863 0 
L 184 0 
L 1544 1831 
L 300 3500 
L 978 3500 
L 1906 2253 
L 2834 3500 
L 3513 3500 
z
" transform="scale(0.015625)"/>
      <path id="DejaVuSans-29" d="M 513 4856 
L 1013 4856 
Q 1481 4119 1714 3412 
Q 1947 2706 1947 2009 
Q 1947 1309 1714 600 
Q 1481 -109 1013 -844 
L 513 -844 
Q 928 -128 1133 580 
Q 1338 1288 1338 2009 
Q 1338 2731 1133 3434 
Q 928 4138 513 4856 
z
" transform="scale(0.015625)"/>
     </defs>
     <use xlink:href="#DejaVuSans-28"/>
     <use xlink:href="#DejaVuSans-65" transform="translate(39.013672 0)"/>
     <use xlink:href="#DejaVuSans-78" transform="translate(98.787109 0)"/>
     <use xlink:href="#DejaVuSans-6f" transform="translate(154.841797 0)"/>
     <use xlink:href="#DejaVuSans-67" transform="translate(216.023438 0)"/>
     <use xlink:href="#DejaVuSans-65" transform="translate(279.5 0)"/>
     <use xlink:href="#DejaVuSans-6e" transform="translate(341.023438 0)"/>
     <use xlink:href="#DejaVuSans-6f" transform="translate(404.402344 0)"/>
     <use xlink:href="#DejaVuSans-75" transform="translate(465.583984 0)"/>
     <use xlink:href="#DejaVuSans-73" transform="translate(528.962891 0)"/>
     <use xlink:href="#DejaVuSans-20" transform="translate(581.0625 0)"/>
     <use xlink:href="#DejaVuSans-65" transform="translate(612.849609 0)"/>
     <use xlink:href="#DejaVuSans-78" transform="translate(672.623047 0)"/>
     <use xlink:href="#DejaVuSans-70" transform="translate(731.802734 0)"/>
     <use xlink:href="#DejaVuSans-65" transform="translate(795.279297 0)"/>
     <use xlink:href="#DejaVuSans-72" transform="translate(856.802734 0)"/>
     <use xlink:href="#DejaVuSans-69" transform="translate(897.916016 0)"/>
     <use xlink:href="#DejaVuSans-6d" transform="translate(925.699219 0)"/>
     <use xlink:href="#DejaVuSans-65" transform="translate(1023.111328 0)"/>
     <use xlink:href="#DejaVuSans-6e" transform="translate(1084.634766 0)"/>
     <use xlink:href="#DejaVuSans-74" transform="translate(1148.013672 0)"/>
     <use xlink:href="#DejaVuSans-20" transform="translate(1187.222656 0)"/>
     <use xlink:href="#DejaVuSans-6f" transform="translate(1219.009766 0)"/>
     <use xlink:href="#DejaVuSans-6e" transform="translate(1280.191406 0)"/>
     <use xlink:href="#DejaVuSans-6c" transform="translate(1343.570312 0)"/>
     <use xlink:href="#DejaVuSans-79" transform="translate(1371.353516 0)"/>
     <use xlink:href="#DejaVuSans-29" transform="translate(1430.533203 0)"/>
    </g>
   </g>
   <g id="text_7">
    <g id="patch_8">
     <path d="M 210.332852 221.923547 
L 362.067148 221.923547 
Q 365.042148 221.923547 365.042148 218.948547 
L 365.042148 201.204 
Q 365.042148 198.229 362.067148 198.229 
L 210.332852 198.229 
Q 207.357852 198.229 207.357852 201.204 
L 207.357852 218.948547 
Q 207.357852 221.923547 210.332852 221.923547 
z
" style="fill: #ffffff; opacity: 0.95; stroke: #e8a855; stroke-width: 1.2; stroke-linejoin: miter"/>
    </g>
    <!-- Norm lock-in approximated through -->
    <g style="fill: #2d2d2d" transform="translate(210.332852 207.662672) scale(0.085 -0.085)">
     <defs>
      <path id="DejaVuSans-4e" d="M 628 4666 
L 1478 4666 
L 3547 763 
L 3547 4666 
L 4159 4666 
L 4159 0 
L 3309 0 
L 1241 3903 
L 1241 0 
L 628 0 
L 628 4666 
z
" transform="scale(0.015625)"/>
      <path id="DejaVuSans-6b" d="M 581 4863 
L 1159 4863 
L 1159 1991 
L 2875 3500 
L 3609 3500 
L 1753 1863 
L 3688 0 
L 2938 0 
L 1159 1709 
L 1159 0 
L 581 0 
L 581 4863 
z
" transform="scale(0.015625)"/>
      <path id="DejaVuSans-2d" d="M 313 2009 
L 1997 2009 
L 1997 1497 
L 313 1497 
L 313 2009 
z
" transform="scale(0.015625)"/>
     </defs>
     <use xlink:href="#DejaVuSans-4e"/>
     <use xlink:href="#DejaVuSans-6f" transform="translate(74.804688 0)"/>
     <use xlink:href="#DejaVuSans-72" transform="translate(135.986328 0)"/>
     <use xlink:href="#DejaVuSans-6d" transform="translate(175.349609 0)"/>
     <use xlink:href="#DejaVuSans-20" transform="translate(272.761719 0)"/>
     <use xlink:href="#DejaVuSans-6c" transform="translate(304.548828 0)"/>
     <use xlink:href="#DejaVuSans-6f" transform="translate(332.332031 0)"/>
     <use xlink:href="#DejaVuSans-63" transform="translate(393.513672 0)"/>
     <use xlink:href="#DejaVuSans-6b" transform="translate(448.494141 0)"/>
     <use xlink:href="#DejaVuSans-2d" transform="translate(506.404297 0)"/>
     <use xlink:href="#DejaVuSans-69" transform="translate(542.488281 0)"/>
     <use xlink:href="#DejaVuSans-6e" transform="translate(570.271484 0)"/>
     <use xlink:href="#DejaVuSans-20" transform="translate(633.650391 0)"/>
     <use xlink:href="#DejaVuSans-61" transform="translate(665.4375 0)"/>
     <use xlink:href="#DejaVuSans-70" transform="translate(726.716797 0)"/>
     <use xlink:href="#DejaVuSans-70" transform="translate(790.193359 0)"/>
     <use xlink:href="#DejaVuSans-72" transform="translate(853.669922 0)"/>
     <use xlink:href="#DejaVuSans-6f" transform="translate(892.533203 0)"/>
     <use xlink:href="#DejaVuSans-78" transform="translate(950.589844 0)"/>
     <use xlink:href="#DejaVuSans-69" transform="translate(1009.769531 0)"/>
     <use xlink:href="#DejaVuSans-6d" transform="translate(1037.552734 0)"/>
     <use xlink:href="#DejaVuSans-61" transform="translate(1134.964844 0)"/>
     <use xlink:href="#DejaVuSans-74" transform="translate(1196.244141 0)"/>
     <use xlink:href="#DejaVuSans-65" transform="translate(1235.453125 0)"/>
     <use xlink:href="#DejaVuSans-64" transform="translate(1296.976562 0)"/>
     <use xlink:href="#DejaVuSans-20" transform="translate(1360.453125 0)"/>
     <use xlink:href="#DejaVuSans-74" transform="translate(1392.240234 0)"/>
     <use xlink:href="#DejaVuSans-68" transform="translate(1431.449219 0)"/>
     <use xlink:href="#DejaVuSans-72" transform="translate(1494.828125 0)"/>
     <use xlink:href="#DejaVuSans-6f" transform="translate(1533.691406 0)"/>
     <use xlink:href="#DejaVuSans-75" transform="translate(1594.873047 0)"/>
     <use xlink:href="#DejaVuSans-67" transform="translate(1658.251953 0)"/>
     <use xlink:href="#DejaVuSans-68" transform="translate(1721.728516 0)"/>
    </g>
    <!-- delegation convergence proxies -->
    <g style="fill: #2d2d2d" transform="translate(218.211289 217.180812) scale(0.085 -0.085)">
     <use xlink:href="#DejaVuSans-64"/>
     <use xlink:href="#DejaVuSans-65" transform="translate(63.476562 0)"/>
     <use xlink:href="#DejaVuSans-6c" transform="translate(125 0)"/>
     <use xlink:href="#DejaVuSans-65" transform="translate(152.783203 0)"/>
     <use xlink:href="#DejaVuSans-67" transform="translate(214.306641 0)"/>
     <use xlink:href="#DejaVuSans-61" transform="translate(277.783203 0)"/>
     <use xlink:href="#DejaVuSans-74" transform="translate(339.0625 0)"/>
     <use xlink:href="#DejaVuSans-69" transform="translate(378.271484 0)"/>
     <use xlink:href="#DejaVuSans-6f" transform="translate(406.054688 0)"/>
     <use xlink:href="#DejaVuSans-6e" transform="translate(467.236328 0)"/>
     <use xlink:href="#DejaVuSans-20" transform="translate(530.615234 0)"/>
     <use xlink:href="#DejaVuSans-63" transform="translate(562.402344 0)"/>
     <use xlink:href="#DejaVuSans-6f" transform="translate(617.382812 0)"/>
     <use xlink:href="#DejaVuSans-6e" transform="translate(678.564453 0)"/>
     <use xlink:href="#DejaVuSans-76" transform="translate(741.943359 0)"/>
     <use xlink:href="#DejaVuSans-65" transform="translate(801.123047 0)"/>
     <use xlink:href="#DejaVuSans-72" transform="translate(862.646484 0)"/>
     <use xlink:href="#DejaVuSans-67" transform="translate(902.009766 0)"/>
     <use xlink:href="#DejaVuSans-65" transform="translate(965.486328 0)"/>
     <use xlink:href="#DejaVuSans-6e" transform="translate(1027.009766 0)"/>
     <use xlink:href="#DejaVuSans-63" transform="translate(1090.388672 0)"/>
     <use xlink:href="#DejaVuSans-65" transform="translate(1145.369141 0)"/>
     <use xlink:href="#DejaVuSans-20" transform="translate(1206.892578 0)"/>
     <use xlink:href="#DejaVuSans-70" transform="translate(1238.679688 0)"/>
     <use xlink:href="#DejaVuSans-72" transform="translate(1302.15625 0)"/>
     <use xlink:href="#DejaVuSans-6f" transform="translate(1341.019531 0)"/>
     <use xlink:href="#DejaVuSans-78" transform="translate(1399.076172 0)"/>
     <use xlink:href="#DejaVuSans-69" transform="translate(1458.255859 0)"/>
     <use xlink:href="#DejaVuSans-65" transform="translate(1486.039062 0)"/>
     <use xlink:href="#DejaVuSans-73" transform="translate(1547.5625 0)"/>
    </g>
   </g>
   <g id="text_8">
    <g id="patch_9">
     <path d="M 189.957422 291.223547 
L 382.442578 291.223547 
Q 385.417578 291.223547 385.417578 288.248547 
L 385.417578 270.504 
Q 385.417578 267.529 382.442578 267.529 
L 189.957422 267.529 
Q 186.982422 267.529 186.982422 270.504 
L 186.982422 288.248547 
Q 186.982422 291.223547 189.957422 291.223547 
z
" style="fill: #ffffff; opacity: 0.95; stroke: #e8a855; stroke-width: 1.2; stroke-linejoin: miter"/>
    </g>
    <!-- Convenience shifts burdens toward providers -->
    <g style="fill: #2d2d2d" transform="translate(189.957422 276.962672) scale(0.085 -0.085)">
     <defs>
      <path id="DejaVuSans-43" d="M 4122 4306 
L 4122 3641 
Q 3803 3938 3442 4084 
Q 3081 4231 2675 4231 
Q 1875 4231 1450 3742 
Q 1025 3253 1025 2328 
Q 1025 1406 1450 917 
Q 1875 428 2675 428 
Q 3081 428 3442 575 
Q 3803 722 4122 1019 
L 4122 359 
Q 3791 134 3420 21 
Q 3050 -91 2638 -91 
Q 1578 -91 968 557 
Q 359 1206 359 2328 
Q 359 3453 968 4101 
Q 1578 4750 2638 4750 
Q 3056 4750 3426 4639 
Q 3797 4528 4122 4306 
z
" transform="scale(0.015625)"/>
     </defs>
     <use xlink:href="#DejaVuSans-43"/>
     <use xlink:href="#DejaVuSans-6f" transform="translate(69.824219 0)"/>
     <use xlink:href="#DejaVuSans-6e" transform="translate(131.005859 0)"/>
     <use xlink:href="#DejaVuSans-76" transform="translate(194.384766 0)"/>
     <use xlink:href="#DejaVuSans-65" transform="translate(253.564453 0)"/>
     <use xlink:href="#DejaVuSans-6e" transform="translate(315.087891 0)"/>
     <use xlink:href="#DejaVuSans-69" transform="translate(378.466797 0)"/>
     <use xlink:href="#DejaVuSans-65" transform="translate(406.25 0)"/>
     <use xlink:href="#DejaVuSans-6e" transform="translate(467.773438 0)"/>
     <use xlink:href="#DejaVuSans-63" transform="translate(531.152344 0)"/>
     <use xlink:href="#DejaVuSans-65" transform="translate(586.132812 0)"/>
     <use xlink:href="#DejaVuSans-20" transform="translate(647.65625 0)"/>
     <use xlink:href="#DejaVuSans-73" transform="translate(679.443359 0)"/>
     <use xlink:href="#DejaVuSans-68" transform="translate(731.542969 0)"/>
     <use xlink:href="#DejaVuSans-69" transform="translate(794.921875 0)"/>
     <use xlink:href="#DejaVuSans-66" transform="translate(822.705078 0)"/>
     <use xlink:href="#DejaVuSans-74" transform="translate(856.160156 0)"/>
     <use xlink:href="#DejaVuSans-73" transform="translate(895.369141 0)"/>
     <use xlink:href="#DejaVuSans-20" transform="translate(947.46875 0)"/>
     <use xlink:href="#DejaVuSans-62" transform="translate(979.255859 0)"/>
     <use xlink:href="#DejaVuSans-75" transform="translate(1042.732422 0)"/>
     <use xlink:href="#DejaVuSans-72" transform="translate(1106.111328 0)"/>
     <use xlink:href="#DejaVuSans-64" transform="translate(1145.474609 0)"/>
     <use xlink:href="#DejaVuSans-65" transform="translate(1208.951172 0)"/>
     <use xlink:href="#DejaVuSans-6e" transform="translate(1270.474609 0)"/>
     <use xlink:href="#DejaVuSans-73" transform="translate(1333.853516 0)"/>
     <use xlink:href="#DejaVuSans-20" transform="translate(1385.953125 0)"/>
     <use xlink:href="#DejaVuSans-74" transform="translate(1417.740234 0)"/>
     <use xlink:href="#DejaVuSans-6f" transform="translate(1456.949219 0)"/>
     <use xlink:href="#DejaVuSans-77" transform="translate(1518.130859 0)"/>
     <use xlink:href="#DejaVuSans-61" transform="translate(1599.917969 0)"/>
     <use xlink:href="#DejaVuSans-72" transform="translate(1661.197266 0)"/>
     <use xlink:href="#DejaVuSans-64" transform="translate(1700.560547 0)"/>
     <use xlink:href="#DejaVuSans-20" transform="translate(1764.037109 0)"/>
     <use xlink:href="#DejaVuSans-70" transform="translate(1795.824219 0)"/>
     <use xlink:href="#DejaVuSans-72" transform="translate(1859.300781 0)"/>
     <use xlink:href="#DejaVuSans-6f" transform="translate(1898.164062 0)"/>
     <use xlink:href="#DejaVuSans-76" transform="translate(1959.345703 0)"/>
     <use xlink:href="#DejaVuSans-69" transform="translate(2018.525391 0)"/>
     <use xlink:href="#DejaVuSans-64" transform="translate(2046.308594 0)"/>
     <use xlink:href="#DejaVuSans-65" transform="translate(2109.785156 0)"/>
     <use xlink:href="#DejaVuSans-72" transform="translate(2171.308594 0)"/>
     <use xlink:href="#DejaVuSans-73" transform="translate(2212.421875 0)"/>
    </g>
    <!-- (exact labor market outside scope) -->
    <g style="fill: #2d2d2d" transform="translate(211.774531 286.480812) scale(0.085 -0.085)">
     <use xlink:href="#DejaVuSans-28"/>
     <use xlink:href="#DejaVuSans-65" transform="translate(39.013672 0)"/>
     <use xlink:href="#DejaVuSans-78" transform="translate(98.787109 0)"/>
     <use xlink:href="#DejaVuSans-61" transform="translate(157.966797 0)"/>
     <use xlink:href="#DejaVuSans-63" transform="translate(219.246094 0)"/>
     <use xlink:href="#DejaVuSans-74" transform="translate(274.226562 0)"/>
     <use xlink:href="#DejaVuSans-20" transform="translate(313.435547 0)"/>
     <use xlink:href="#DejaVuSans-6c" transform="translate(345.222656 0)"/>
     <use xlink:href="#DejaVuSans-61" transform="translate(373.005859 0)"/>
     <use xlink:href="#DejaVuSans-62" transform="translate(434.285156 0)"/>
     <use xlink:href="#DejaVuSans-6f" transform="translate(497.761719 0)"/>
     <use xlink:href="#DejaVuSans-72" transform="translate(558.943359 0)"/>
     <use xlink:href="#DejaVuSans-20" transform="translate(600.056641 0)"/>
     <use xlink:href="#DejaVuSans-6d" transform="translate(631.84375 0)"/>
     <use xlink:href="#DejaVuSans-61" transform="translate(729.255859 0)"/>
     <use xlink:href="#DejaVuSans-72" transform="translate(790.535156 0)"/>
     <use xlink:href="#DejaVuSans-6b" transform="translate(831.648438 0)"/>
     <use xlink:href="#DejaVuSans-65" transform="translate(885.933594 0)"/>
     <use xlink:href="#DejaVuSans-74" transform="translate(947.457031 0)"/>
     <use xlink:href="#DejaVuSans-20" transform="translate(986.666016 0)"/>
     <use xlink:href="#DejaVuSans-6f" transform="translate(1018.453125 0)"/>
     <use xlink:href="#DejaVuSans-75" transform="translate(1079.634766 0)"/>
     <use xlink:href="#DejaVuSans-74" transform="translate(1143.013672 0)"/>
     <use xlink:href="#DejaVuSans-73" transform="translate(1182.222656 0)"/>
     <use xlink:href="#DejaVuSans-69" transform="translate(1234.322266 0)"/>
     <use xlink:href="#DejaVuSans-64" transform="translate(1262.105469 0)"/>
     <use xlink:href="#DejaVuSans-65" transform="translate(1325.582031 0)"/>
     <use xlink:href="#DejaVuSans-20" transform="translate(1387.105469 0)"/>
     <use xlink:href="#DejaVuSans-73" transform="translate(1418.892578 0)"/>
     <use xlink:href="#DejaVuSans-63" transform="translate(1470.992188 0)"/>
     <use xlink:href="#DejaVuSans-6f" transform="translate(1525.972656 0)"/>
     <use xlink:href="#DejaVuSans-70" transform="translate(1587.154297 0)"/>
     <use xlink:href="#DejaVuSans-65" transform="translate(1650.630859 0)"/>
     <use xlink:href="#DejaVuSans-29" transform="translate(1712.154297 0)"/>
    </g>
   </g>
   <g id="text_9">
    <g id="patch_10">
     <path d="M 425.447813 95.227125 
L 515.232188 95.227125 
Q 520.032188 95.227125 520.032188 90.427125 
L 520.032188 65.376 
Q 520.032188 60.576 515.232188 60.576 
L 425.447813 60.576 
Q 420.647813 60.576 420.647813 65.376 
L 420.647813 90.427125 
Q 420.647813 95.227125 425.447813 95.227125 
z
" style="fill: #b5362a; opacity: 0.9"/>
    </g>
    <!-- Cannot Claim -->
    <g style="fill: #ffffff" transform="translate(425.447813 74.494125) scale(0.12 -0.12)">
     <defs>
      <path id="DejaVuSans-Bold-6d" d="M 3781 2919 
Q 3994 3244 4286 3414 
Q 4578 3584 4928 3584 
Q 5531 3584 5847 3212 
Q 6163 2841 6163 2131 
L 6163 0 
L 5038 0 
L 5038 1825 
Q 5041 1866 5042 1909 
Q 5044 1953 5044 2034 
Q 5044 2406 4934 2573 
Q 4825 2741 4581 2741 
Q 4263 2741 4089 2478 
Q 3916 2216 3909 1719 
L 3909 0 
L 2784 0 
L 2784 1825 
Q 2784 2406 2684 2573 
Q 2584 2741 2328 2741 
Q 2006 2741 1831 2477 
Q 1656 2213 1656 1722 
L 1656 0 
L 531 0 
L 531 3500 
L 1656 3500 
L 1656 2988 
Q 1863 3284 2130 3434 
Q 2397 3584 2719 3584 
Q 3081 3584 3359 3409 
Q 3638 3234 3781 2919 
z
" transform="scale(0.015625)"/>
     </defs>
     <use xlink:href="#DejaVuSans-Bold-43"/>
     <use xlink:href="#DejaVuSans-Bold-61" transform="translate(73.388672 0)"/>
     <use xlink:href="#DejaVuSans-Bold-6e" transform="translate(140.869141 0)"/>
     <use xlink:href="#DejaVuSans-Bold-6e" transform="translate(212.060547 0)"/>
     <use xlink:href="#DejaVuSans-Bold-6f" transform="translate(283.251953 0)"/>
     <use xlink:href="#DejaVuSans-Bold-74" transform="translate(351.953125 0)"/>
     <use xlink:href="#DejaVuSans-Bold-20" transform="translate(399.755859 0)"/>
     <use xlink:href="#DejaVuSans-Bold-43" transform="translate(434.570312 0)"/>
     <use xlink:href="#DejaVuSans-Bold-6c" transform="translate(507.958984 0)"/>
     <use xlink:href="#DejaVuSans-Bold-61" transform="translate(542.236328 0)"/>
     <use xlink:href="#DejaVuSans-Bold-69" transform="translate(609.716797 0)"/>
     <use xlink:href="#DejaVuSans-Bold-6d" transform="translate(643.994141 0)"/>
    </g>
    <!-- From Model -->
    <g style="fill: #ffffff" transform="translate(430.6875 87.9315) scale(0.12 -0.12)">
     <defs>
      <path id="DejaVuSans-Bold-46" d="M 588 4666 
L 3834 4666 
L 3834 3756 
L 1791 3756 
L 1791 2888 
L 3713 2888 
L 3713 1978 
L 1791 1978 
L 1791 0 
L 588 0 
L 588 4666 
z
" transform="scale(0.015625)"/>
      <path id="DejaVuSans-Bold-72" d="M 3138 2547 
Q 2991 2616 2845 2648 
Q 2700 2681 2553 2681 
Q 2122 2681 1889 2404 
Q 1656 2128 1656 1613 
L 1656 0 
L 538 0 
L 538 3500 
L 1656 3500 
L 1656 2925 
Q 1872 3269 2151 3426 
Q 2431 3584 2822 3584 
Q 2878 3584 2943 3579 
Q 3009 3575 3134 3559 
L 3138 2547 
z
" transform="scale(0.015625)"/>
      <path id="DejaVuSans-Bold-4d" d="M 588 4666 
L 2119 4666 
L 3181 2169 
L 4250 4666 
L 5778 4666 
L 5778 0 
L 4641 0 
L 4641 3413 
L 3566 897 
L 2803 897 
L 1728 3413 
L 1728 0 
L 588 0 
L 588 4666 
z
" transform="scale(0.015625)"/>
     </defs>
     <use xlink:href="#DejaVuSans-Bold-46"/>
     <use xlink:href="#DejaVuSans-Bold-72" transform="translate(61.935547 0)"/>
     <use xlink:href="#DejaVuSans-Bold-6f" transform="translate(111.251953 0)"/>
     <use xlink:href="#DejaVuSans-Bold-6d" transform="translate(179.953125 0)"/>
     <use xlink:href="#DejaVuSans-Bold-20" transform="translate(284.152344 0)"/>
     <use xlink:href="#DejaVuSans-Bold-4d" transform="translate(318.966797 0)"/>
     <use xlink:href="#DejaVuSans-Bold-6f" transform="translate(418.478516 0)"/>
     <use xlink:href="#DejaVuSans-Bold-64" transform="translate(487.179688 0)"/>
     <use xlink:href="#DejaVuSans-Bold-65" transform="translate(558.761719 0)"/>
     <use xlink:href="#DejaVuSans-Bold-6c" transform="translate(626.583984 0)"/>
    </g>
   </g>
   <g id="text_10">
    <g id="patch_11">
     <path d="M 384.417617 143.105406 
L 556.262383 143.105406 
Q 559.237383 143.105406 559.237383 140.130406 
L 559.237383 131.904 
Q 559.237383 128.929 556.262383 128.929 
L 384.417617 128.929 
Q 381.442617 128.929 381.442617 131.904 
L 381.442617 140.130406 
Q 381.442617 143.105406 384.417617 143.105406 
z
" style="fill: #ffffff; opacity: 0.95; stroke: #b5362a; stroke-width: 1.2; stroke-linejoin: miter"/>
    </g>
    <!-- Full causal loop (prices not endogenous) -->
    <g style="fill: #2d2d2d" transform="translate(384.417617 138.362672) scale(0.085 -0.085)">
     <defs>
      <path id="DejaVuSans-46" d="M 628 4666 
L 3309 4666 
L 3309 4134 
L 1259 4134 
L 1259 2759 
L 3109 2759 
L 3109 2228 
L 1259 2228 
L 1259 0 
L 628 0 
L 628 4666 
z
" transform="scale(0.015625)"/>
     </defs>
     <use xlink:href="#DejaVuSans-46"/>
     <use xlink:href="#DejaVuSans-75" transform="translate(52.019531 0)"/>
     <use xlink:href="#DejaVuSans-6c" transform="translate(115.398438 0)"/>
     <use xlink:href="#DejaVuSans-6c" transform="translate(143.181641 0)"/>
     <use xlink:href="#DejaVuSans-20" transform="translate(170.964844 0)"/>
     <use xlink:href="#DejaVuSans-63" transform="translate(202.751953 0)"/>
     <use xlink:href="#DejaVuSans-61" transform="translate(257.732422 0)"/>
     <use xlink:href="#DejaVuSans-75" transform="translate(319.011719 0)"/>
     <use xlink:href="#DejaVuSans-73" transform="translate(382.390625 0)"/>
     <use xlink:href="#DejaVuSans-61" transform="translate(434.490234 0)"/>
     <use xlink:href="#DejaVuSans-6c" transform="translate(495.769531 0)"/>
     <use xlink:href="#DejaVuSans-20" transform="translate(523.552734 0)"/>
     <use xlink:href="#DejaVuSans-6c" transform="translate(555.339844 0)"/>
     <use xlink:href="#DejaVuSans-6f" transform="translate(583.123047 0)"/>
     <use xlink:href="#DejaVuSans-6f" transform="translate(644.304688 0)"/>
     <use xlink:href="#DejaVuSans-70" transform="translate(705.486328 0)"/>
     <use xlink:href="#DejaVuSans-20" transform="translate(768.962891 0)"/>
     <use xlink:href="#DejaVuSans-28" transform="translate(800.75 0)"/>
     <use xlink:href="#DejaVuSans-70" transform="translate(839.763672 0)"/>
     <use xlink:href="#DejaVuSans-72" transform="translate(903.240234 0)"/>
     <use xlink:href="#DejaVuSans-69" transform="translate(944.353516 0)"/>
     <use xlink:href="#DejaVuSans-63" transform="translate(972.136719 0)"/>
     <use xlink:href="#DejaVuSans-65" transform="translate(1027.117188 0)"/>
     <use xlink:href="#DejaVuSans-73" transform="translate(1088.640625 0)"/>
     <use xlink:href="#DejaVuSans-20" transform="translate(1140.740234 0)"/>
     <use xlink:href="#DejaVuSans-6e" transform="translate(1172.527344 0)"/>
     <use xlink:href="#DejaVuSans-6f" transform="translate(1235.90625 0)"/>
     <use xlink:href="#DejaVuSans-74" transform="translate(1297.087891 0)"/>
     <use xlink:href="#DejaVuSans-20" transform="translate(1336.296875 0)"/>
     <use xlink:href="#DejaVuSans-65" transform="translate(1368.083984 0)"/>
     <use xlink:href="#DejaVuSans-6e" transform="translate(1429.607422 0)"/>
     <use xlink:href="#DejaVuSans-64" transform="translate(1492.986328 0)"/>
     <use xlink:href="#DejaVuSans-6f" transform="translate(1556.462891 0)"/>
     <use xlink:href="#DejaVuSans-67" transform="translate(1617.644531 0)"/>
     <use xlink:href="#DejaVuSans-65" transform="translate(1681.121094 0)"/>
     <use xlink:href="#DejaVuSans-6e" transform="translate(1742.644531 0)"/>
     <use xlink:href="#DejaVuSans-6f" transform="translate(1806.023438 0)"/>
     <use xlink:href="#DejaVuSans-75" transform="translate(1867.205078 0)"/>
     <use xlink:href="#DejaVuSans-73" transform="translate(1930.583984 0)"/>
     <use xlink:href="#DejaVuSans-29" transform="translate(1982.683594 0)"/>
    </g>
   </g>
   <g id="text_11">
    <g id="patch_12">
     <path d="M 403.998828 221.923547 
L 536.681172 221.923547 
Q 539.656172 221.923547 539.656172 218.948547 
L 539.656172 201.204 
Q 539.656172 198.229 536.681172 198.229 
L 403.998828 198.229 
Q 401.023828 198.229 401.023828 201.204 
L 401.023828 218.948547 
Q 401.023828 221.923547 403.998828 221.923547 
z
" style="fill: #ffffff; opacity: 0.95; stroke: #b5362a; stroke-width: 1.2; stroke-linejoin: miter"/>
    </g>
    <!-- Real population measurements -->
    <g style="fill: #2d2d2d" transform="translate(403.998828 207.662672) scale(0.085 -0.085)">
     <defs>
      <path id="DejaVuSans-52" d="M 2841 2188 
Q 3044 2119 3236 1894 
Q 3428 1669 3622 1275 
L 4263 0 
L 3584 0 
L 2988 1197 
Q 2756 1666 2539 1819 
Q 2322 1972 1947 1972 
L 1259 1972 
L 1259 0 
L 628 0 
L 628 4666 
L 2053 4666 
Q 2853 4666 3247 4331 
Q 3641 3997 3641 3322 
Q 3641 2881 3436 2590 
Q 3231 2300 2841 2188 
z
M 1259 4147 
L 1259 2491 
L 2053 2491 
Q 2509 2491 2742 2702 
Q 2975 2913 2975 3322 
Q 2975 3731 2742 3939 
Q 2509 4147 2053 4147 
L 1259 4147 
z
" transform="scale(0.015625)"/>
     </defs>
     <use xlink:href="#DejaVuSans-52"/>
     <use xlink:href="#DejaVuSans-65" transform="translate(64.982422 0)"/>
     <use xlink:href="#DejaVuSans-61" transform="translate(126.505859 0)"/>
     <use xlink:href="#DejaVuSans-6c" transform="translate(187.785156 0)"/>
     <use xlink:href="#DejaVuSans-20" transform="translate(215.568359 0)"/>
     <use xlink:href="#DejaVuSans-70" transform="translate(247.355469 0)"/>
     <use xlink:href="#DejaVuSans-6f" transform="translate(310.832031 0)"/>
     <use xlink:href="#DejaVuSans-70" transform="translate(372.013672 0)"/>
     <use xlink:href="#DejaVuSans-75" transform="translate(435.490234 0)"/>
     <use xlink:href="#DejaVuSans-6c" transform="translate(498.869141 0)"/>
     <use xlink:href="#DejaVuSans-61" transform="translate(526.652344 0)"/>
     <use xlink:href="#DejaVuSans-74" transform="translate(587.931641 0)"/>
     <use xlink:href="#DejaVuSans-69" transform="translate(627.140625 0)"/>
     <use xlink:href="#DejaVuSans-6f" transform="translate(654.923828 0)"/>
     <use xlink:href="#DejaVuSans-6e" transform="translate(716.105469 0)"/>
     <use xlink:href="#DejaVuSans-20" transform="translate(779.484375 0)"/>
     <use xlink:href="#DejaVuSans-6d" transform="translate(811.271484 0)"/>
     <use xlink:href="#DejaVuSans-65" transform="translate(908.683594 0)"/>
     <use xlink:href="#DejaVuSans-61" transform="translate(970.207031 0)"/>
     <use xlink:href="#DejaVuSans-73" transform="translate(1031.486328 0)"/>
     <use xlink:href="#DejaVuSans-75" transform="translate(1083.585938 0)"/>
     <use xlink:href="#DejaVuSans-72" transform="translate(1146.964844 0)"/>
     <use xlink:href="#DejaVuSans-65" transform="translate(1185.828125 0)"/>
     <use xlink:href="#DejaVuSans-6d" transform="translate(1247.351562 0)"/>
     <use xlink:href="#DejaVuSans-65" transform="translate(1344.763672 0)"/>
     <use xlink:href="#DejaVuSans-6e" transform="translate(1406.287109 0)"/>
     <use xlink:href="#DejaVuSans-74" transform="translate(1469.666016 0)"/>
     <use xlink:href="#DejaVuSans-73" transform="translate(1508.875 0)"/>
    </g>
    <!-- or named societies -->
    <g style="fill: #2d2d2d" transform="translate(429.917188 217.180812) scale(0.085 -0.085)">
     <use xlink:href="#DejaVuSans-6f"/>
     <use xlink:href="#DejaVuSans-72" transform="translate(61.181641 0)"/>
     <use xlink:href="#DejaVuSans-20" transform="translate(102.294922 0)"/>
     <use xlink:href="#DejaVuSans-6e" transform="translate(134.082031 0)"/>
     <use xlink:href="#DejaVuSans-61" transform="translate(197.460938 0)"/>
     <use xlink:href="#DejaVuSans-6d" transform="translate(258.740234 0)"/>
     <use xlink:href="#DejaVuSans-65" transform="translate(356.152344 0)"/>
     <use xlink:href="#DejaVuSans-64" transform="translate(417.675781 0)"/>
     <use xlink:href="#DejaVuSans-20" transform="translate(481.152344 0)"/>
     <use xlink:href="#DejaVuSans-73" transform="translate(512.939453 0)"/>
     <use xlink:href="#DejaVuSans-6f" transform="translate(565.039062 0)"/>
     <use xlink:href="#DejaVuSans-63" transform="translate(626.220703 0)"/>
     <use xlink:href="#DejaVuSans-69" transform="translate(681.201172 0)"/>
     <use xlink:href="#DejaVuSans-65" transform="translate(708.984375 0)"/>
     <use xlink:href="#DejaVuSans-74" transform="translate(770.507812 0)"/>
     <use xlink:href="#DejaVuSans-69" transform="translate(809.716797 0)"/>
     <use xlink:href="#DejaVuSans-65" transform="translate(837.5 0)"/>
     <use xlink:href="#DejaVuSans-73" transform="translate(899.023438 0)"/>
    </g>
   </g>
   <g id="text_12">
    <g id="patch_13">
     <path d="M 393.075 291.223547 
L 547.605 291.223547 
Q 550.58 291.223547 550.58 288.248547 
L 550.58 270.504 
Q 550.58 267.529 547.605 267.529 
L 393.075 267.529 
Q 390.1 267.529 390.1 270.504 
L 390.1 288.248547 
Q 390.1 291.223547 393.075 291.223547 
z
" style="fill: #ffffff; opacity: 0.95; stroke: #b5362a; stroke-width: 1.2; stroke-linejoin: miter"/>
    </g>
    <!-- Skill decay, demographic inequality, -->
    <g style="fill: #2d2d2d" transform="translate(393.075 276.962672) scale(0.085 -0.085)">
     <defs>
      <path id="DejaVuSans-53" d="M 3425 4513 
L 3425 3897 
Q 3066 4069 2747 4153 
Q 2428 4238 2131 4238 
Q 1616 4238 1336 4038 
Q 1056 3838 1056 3469 
Q 1056 3159 1242 3001 
Q 1428 2844 1947 2747 
L 2328 2669 
Q 3034 2534 3370 2195 
Q 3706 1856 3706 1288 
Q 3706 609 3251 259 
Q 2797 -91 1919 -91 
Q 1588 -91 1214 -16 
Q 841 59 441 206 
L 441 856 
Q 825 641 1194 531 
Q 1563 422 1919 422 
Q 2459 422 2753 634 
Q 3047 847 3047 1241 
Q 3047 1584 2836 1778 
Q 2625 1972 2144 2069 
L 1759 2144 
Q 1053 2284 737 2584 
Q 422 2884 422 3419 
Q 422 4038 858 4394 
Q 1294 4750 2059 4750 
Q 2388 4750 2728 4690 
Q 3069 4631 3425 4513 
z
" transform="scale(0.015625)"/>
     </defs>
     <use xlink:href="#DejaVuSans-53"/>
     <use xlink:href="#DejaVuSans-6b" transform="translate(63.476562 0)"/>
     <use xlink:href="#DejaVuSans-69" transform="translate(121.386719 0)"/>
     <use xlink:href="#DejaVuSans-6c" transform="translate(149.169922 0)"/>
     <use xlink:href="#DejaVuSans-6c" transform="translate(176.953125 0)"/>
     <use xlink:href="#DejaVuSans-20" transform="translate(204.736328 0)"/>
     <use xlink:href="#DejaVuSans-64" transform="translate(236.523438 0)"/>
     <use xlink:href="#DejaVuSans-65" transform="translate(300 0)"/>
     <use xlink:href="#DejaVuSans-63" transform="translate(361.523438 0)"/>
     <use xlink:href="#DejaVuSans-61" transform="translate(416.503906 0)"/>
     <use xlink:href="#DejaVuSans-79" transform="translate(477.783203 0)"/>
     <use xlink:href="#DejaVuSans-2c" transform="translate(536.962891 0)"/>
     <use xlink:href="#DejaVuSans-20" transform="translate(568.75 0)"/>
     <use xlink:href="#DejaVuSans-64" transform="translate(600.537109 0)"/>
     <use xlink:href="#DejaVuSans-65" transform="translate(664.013672 0)"/>
     <use xlink:href="#DejaVuSans-6d" transform="translate(725.537109 0)"/>
     <use xlink:href="#DejaVuSans-6f" transform="translate(822.949219 0)"/>
     <use xlink:href="#DejaVuSans-67" transform="translate(884.130859 0)"/>
     <use xlink:href="#DejaVuSans-72" transform="translate(947.607422 0)"/>
     <use xlink:href="#DejaVuSans-61" transform="translate(988.720703 0)"/>
     <use xlink:href="#DejaVuSans-70" transform="translate(1050 0)"/>
     <use xlink:href="#DejaVuSans-68" transform="translate(1113.476562 0)"/>
     <use xlink:href="#DejaVuSans-69" transform="translate(1176.855469 0)"/>
     <use xlink:href="#DejaVuSans-63" transform="translate(1204.638672 0)"/>
     <use xlink:href="#DejaVuSans-20" transform="translate(1259.619141 0)"/>
     <use xlink:href="#DejaVuSans-69" transform="translate(1291.40625 0)"/>
     <use xlink:href="#DejaVuSans-6e" transform="translate(1319.189453 0)"/>
     <use xlink:href="#DejaVuSans-65" transform="translate(1382.568359 0)"/>
     <use xlink:href="#DejaVuSans-71" transform="translate(1444.091797 0)"/>
     <use xlink:href="#DejaVuSans-75" transform="translate(1507.568359 0)"/>
     <use xlink:href="#DejaVuSans-61" transform="translate(1570.947266 0)"/>
     <use xlink:href="#DejaVuSans-6c" transform="translate(1632.226562 0)"/>
     <use xlink:href="#DejaVuSans-69" transform="translate(1660.009766 0)"/>
     <use xlink:href="#DejaVuSans-74" transform="translate(1687.792969 0)"/>
     <use xlink:href="#DejaVuSans-79" transform="translate(1727.001953 0)"/>
     <use xlink:href="#DejaVuSans-2c" transform="translate(1786.181641 0)"/>
    </g>
    <!-- delay-tolerance dynamics -->
    <g style="fill: #2d2d2d" transform="translate(415.474492 286.480812) scale(0.085 -0.085)">
     <use xlink:href="#DejaVuSans-64"/>
     <use xlink:href="#DejaVuSans-65" transform="translate(63.476562 0)"/>
     <use xlink:href="#DejaVuSans-6c" transform="translate(125 0)"/>
     <use xlink:href="#DejaVuSans-61" transform="translate(152.783203 0)"/>
     <use xlink:href="#DejaVuSans-79" transform="translate(214.0625 0)"/>
     <use xlink:href="#DejaVuSans-2d" transform="translate(271.492188 0)"/>
     <use xlink:href="#DejaVuSans-74" transform="translate(307.576172 0)"/>
     <use xlink:href="#DejaVuSans-6f" transform="translate(346.785156 0)"/>
     <use xlink:href="#DejaVuSans-6c" transform="translate(407.966797 0)"/>
     <use xlink:href="#DejaVuSans-65" transform="translate(435.75 0)"/>
     <use xlink:href="#DejaVuSans-72" transform="translate(497.273438 0)"/>
     <use xlink:href="#DejaVuSans-61" transform="translate(538.386719 0)"/>
     <use xlink:href="#DejaVuSans-6e" transform="translate(599.666016 0)"/>
     <use xlink:href="#DejaVuSans-63" transform="translate(663.044922 0)"/>
     <use xlink:href="#DejaVuSans-65" transform="translate(718.025391 0)"/>
     <use xlink:href="#DejaVuSans-20" transform="translate(779.548828 0)"/>
     <use xlink:href="#DejaVuSans-64" transform="translate(811.335938 0)"/>
     <use xlink:href="#DejaVuSans-79" transform="translate(874.8125 0)"/>
     <use xlink:href="#DejaVuSans-6e" transform="translate(933.992188 0)"/>
     <use xlink:href="#DejaVuSans-61" transform="translate(997.371094 0)"/>
     <use xlink:href="#DejaVuSans-6d" transform="translate(1058.650391 0)"/>
     <use xlink:href="#DejaVuSans-69" transform="translate(1156.0625 0)"/>
     <use xlink:href="#DejaVuSans-63" transform="translate(1183.845703 0)"/>
     <use xlink:href="#DejaVuSans-73" transform="translate(1238.826172 0)"/>
    </g>
   </g>
  </g>
  <g id="text_13">
   <!-- Claim Boundaries: What the Model Can and Cannot Assert -->
   <g style="fill: #2d2d2d" transform="translate(64.108672 17.077969) scale(0.13 -0.13)">
    <defs>
     <path id="DejaVuSans-Bold-42" d="M 2456 2859 
Q 2741 2859 2887 2984 
Q 3034 3109 3034 3353 
Q 3034 3594 2887 3720 
Q 2741 3847 2456 3847 
L 1791 3847 
L 1791 2859 
L 2456 2859 
z
M 2497 819 
Q 2859 819 3042 972 
Q 3225 1125 3225 1434 
Q 3225 1738 3044 1889 
Q 2863 2041 2497 2041 
L 1791 2041 
L 1791 819 
L 2497 819 
z
M 3616 2497 
Q 4003 2384 4215 2081 
Q 4428 1778 4428 1338 
Q 4428 663 3972 331 
Q 3516 0 2584 0 
L 588 0 
L 588 4666 
L 2394 4666 
Q 3366 4666 3802 4372 
Q 4238 4078 4238 3431 
Q 4238 3091 4078 2852 
Q 3919 2613 3616 2497 
z
" transform="scale(0.015625)"/>
     <path id="DejaVuSans-Bold-75" d="M 500 1363 
L 500 3500 
L 1625 3500 
L 1625 3150 
Q 1625 2866 1622 2436 
Q 1619 2006 1619 1863 
Q 1619 1441 1641 1255 
Q 1663 1069 1716 984 
Q 1784 875 1895 815 
Q 2006 756 2150 756 
Q 2500 756 2700 1025 
Q 2900 1294 2900 1772 
L 2900 3500 
L 4019 3500 
L 4019 0 
L 2900 0 
L 2900 506 
Q 2647 200 2364 54 
Q 2081 -91 1741 -91 
Q 1134 -91 817 281 
Q 500 653 500 1363 
z
" transform="scale(0.015625)"/>
     <path id="DejaVuSans-Bold-73" d="M 3272 3391 
L 3272 2541 
Q 2913 2691 2578 2766 
Q 2244 2841 1947 2841 
Q 1628 2841 1473 2761 
Q 1319 2681 1319 2516 
Q 1319 2381 1436 2309 
Q 1553 2238 1856 2203 
L 2053 2175 
Q 2913 2066 3209 1816 
Q 3506 1566 3506 1031 
Q 3506 472 3093 190 
Q 2681 -91 1863 -91 
Q 1516 -91 1145 -36 
Q 775 19 384 128 
L 384 978 
Q 719 816 1070 734 
Q 1422 653 1784 653 
Q 2113 653 2278 743 
Q 2444 834 2444 1013 
Q 2444 1163 2330 1236 
Q 2216 1309 1875 1350 
L 1678 1375 
Q 931 1469 631 1722 
Q 331 1975 331 2491 
Q 331 3047 712 3315 
Q 1094 3584 1881 3584 
Q 2191 3584 2531 3537 
Q 2872 3491 3272 3391 
z
" transform="scale(0.015625)"/>
     <path id="DejaVuSans-Bold-3a" d="M 716 3500 
L 1844 3500 
L 1844 2291 
L 716 2291 
L 716 3500 
z
M 716 1209 
L 1844 1209 
L 1844 0 
L 716 0 
L 716 1209 
z
" transform="scale(0.015625)"/>
     <path id="DejaVuSans-Bold-41" d="M 3419 850 
L 1538 850 
L 1241 0 
L 31 0 
L 1759 4666 
L 3194 4666 
L 4922 0 
L 3713 0 
L 3419 850 
z
M 1838 1716 
L 3116 1716 
L 2478 3572 
L 1838 1716 
z
" transform="scale(0.015625)"/>
    </defs>
    <use xlink:href="#DejaVuSans-Bold-43"/>
    <use xlink:href="#DejaVuSans-Bold-6c" transform="translate(73.388672 0)"/>
    <use xlink:href="#DejaVuSans-Bold-61" transform="translate(107.666016 0)"/>
    <use xlink:href="#DejaVuSans-Bold-69" transform="translate(175.146484 0)"/>
    <use xlink:href="#DejaVuSans-Bold-6d" transform="translate(209.423828 0)"/>
    <use xlink:href="#DejaVuSans-Bold-20" transform="translate(313.623047 0)"/>
    <use xlink:href="#DejaVuSans-Bold-42" transform="translate(348.4375 0)"/>
    <use xlink:href="#DejaVuSans-Bold-6f" transform="translate(424.658203 0)"/>
    <use xlink:href="#DejaVuSans-Bold-75" transform="translate(493.359375 0)"/>
    <use xlink:href="#DejaVuSans-Bold-6e" transform="translate(564.550781 0)"/>
    <use xlink:href="#DejaVuSans-Bold-64" transform="translate(635.742188 0)"/>
    <use xlink:href="#DejaVuSans-Bold-61" transform="translate(707.324219 0)"/>
    <use xlink:href="#DejaVuSans-Bold-72" transform="translate(774.804688 0)"/>
    <use xlink:href="#DejaVuSans-Bold-69" transform="translate(824.121094 0)"/>
    <use xlink:href="#DejaVuSans-Bold-65" transform="translate(858.398438 0)"/>
    <use xlink:href="#DejaVuSans-Bold-73" transform="translate(926.220703 0)"/>
    <use xlink:href="#DejaVuSans-Bold-3a" transform="translate(985.742188 0)"/>
    <use xlink:href="#DejaVuSans-Bold-20" transform="translate(1025.732422 0)"/>
    <use xlink:href="#DejaVuSans-Bold-57" transform="translate(1060.546875 0)"/>
    <use xlink:href="#DejaVuSans-Bold-68" transform="translate(1170.849609 0)"/>
    <use xlink:href="#DejaVuSans-Bold-61" transform="translate(1242.041016 0)"/>
    <use xlink:href="#DejaVuSans-Bold-74" transform="translate(1309.521484 0)"/>
    <use xlink:href="#DejaVuSans-Bold-20" transform="translate(1357.324219 0)"/>
    <use xlink:href="#DejaVuSans-Bold-74" transform="translate(1392.138672 0)"/>
    <use xlink:href="#DejaVuSans-Bold-68" transform="translate(1439.941406 0)"/>
    <use xlink:href="#DejaVuSans-Bold-65" transform="translate(1511.132812 0)"/>
    <use xlink:href="#DejaVuSans-Bold-20" transform="translate(1578.955078 0)"/>
    <use xlink:href="#DejaVuSans-Bold-4d" transform="translate(1613.769531 0)"/>
    <use xlink:href="#DejaVuSans-Bold-6f" transform="translate(1713.28125 0)"/>
    <use xlink:href="#DejaVuSans-Bold-64" transform="translate(1781.982422 0)"/>
    <use xlink:href="#DejaVuSans-Bold-65" transform="translate(1853.564453 0)"/>
    <use xlink:href="#DejaVuSans-Bold-6c" transform="translate(1921.386719 0)"/>
    <use xlink:href="#DejaVuSans-Bold-20" transform="translate(1955.664062 0)"/>
    <use xlink:href="#DejaVuSans-Bold-43" transform="translate(1990.478516 0)"/>
    <use xlink:href="#DejaVuSans-Bold-61" transform="translate(2063.867188 0)"/>
    <use xlink:href="#DejaVuSans-Bold-6e" transform="translate(2131.347656 0)"/>
    <use xlink:href="#DejaVuSans-Bold-20" transform="translate(2202.539062 0)"/>
    <use xlink:href="#DejaVuSans-Bold-61" transform="translate(2237.353516 0)"/>
    <use xlink:href="#DejaVuSans-Bold-6e" transform="translate(2304.833984 0)"/>
    <use xlink:href="#DejaVuSans-Bold-64" transform="translate(2376.025391 0)"/>
    <use xlink:href="#DejaVuSans-Bold-20" transform="translate(2447.607422 0)"/>
    <use xlink:href="#DejaVuSans-Bold-43" transform="translate(2482.421875 0)"/>
    <use xlink:href="#DejaVuSans-Bold-61" transform="translate(2555.810547 0)"/>
    <use xlink:href="#DejaVuSans-Bold-6e" transform="translate(2623.291016 0)"/>
    <use xlink:href="#DejaVuSans-Bold-6e" transform="translate(2694.482422 0)"/>
    <use xlink:href="#DejaVuSans-Bold-6f" transform="translate(2765.673828 0)"/>
    <use xlink:href="#DejaVuSans-Bold-74" transform="translate(2834.375 0)"/>
    <use xlink:href="#DejaVuSans-Bold-20" transform="translate(2882.177734 0)"/>
    <use xlink:href="#DejaVuSans-Bold-41" transform="translate(2916.992188 0)"/>
    <use xlink:href="#DejaVuSans-Bold-73" transform="translate(2994.384766 0)"/>
    <use xlink:href="#DejaVuSans-Bold-73" transform="translate(3053.90625 0)"/>
    <use xlink:href="#DejaVuSans-Bold-65" transform="translate(3113.427734 0)"/>
    <use xlink:href="#DejaVuSans-Bold-72" transform="translate(3181.25 0)"/>
    <use xlink:href="#DejaVuSans-Bold-74" transform="translate(3230.566406 0)"/>
   </g>
  </g>
 </g>
</svg>
