<?xml version="1.0" encoding="utf-8" standalone="no"?>
<!DOCTYPE svg PUBLIC "-//W3C//DTD SVG 1.1//EN"
  "http://www.w3.org/Graphics/SVG/1.1/DTD/svg11.dtd">
<svg xmlns="http://www.w3.org/2000/svg" xmlns:cc="http://creativecommons.org/ns#" xmlns:dc="http://purl.org/dc/elements/1.1/" xmlns:rdf="http://www.w3.org/1999/02/22-rdf-syntax-ns#" xmlns:xlink="http://www.w3.org/1999/xlink" width="821.151328pt" height="474.616756pt" viewBox="0 0 821.151328 474.616756" version="1.1">
 <metadata>
  <rdf:RDF>
   <cc:Work>
    <dc:type rdf:resource="http://purl.org/dc/dcmitype/StillImage" />
    <dc:date>2026-04-02T18:38:13.639317</dc:date>
    <dc:format>image/svg+xml</dc:format>
    <dc:creator>
     <cc:Agent>
      <dc:title>Matplotlib v3.10.8, https://matplotlib.org/</dc:title>
     </cc:Agent>
    </dc:creator>
   </cc:Work>
  </rdf:RDF>
 </metadata>
 <defs>
  <style type="text/css">*{stroke-linejoin: round; stroke-linecap: butt}</style>
 </defs>
 <g id="figure_1">
  <g id="patch_1">
   <path d="M 0 474.616756  L 821.151328 474.616756  L 821.151328 0  L 0 0  z " style="fill: #ffffff" />
  </g>
  <g id="axes_1">
   <g id="patch_2">
    <path d="M 45.540781 422.460624  L 750.740781 422.460624  L 750.740781 39.708  L 45.540781 39.708  z " style="fill: #fafafa" />
   </g>
   <g id="patch_3">
    <path d="M 77.595327 422.460624  L 176.91927 422.460624  L 176.91927 249.236355  L 77.595327 249.236355  z " clip-path="url(#p35a6d374d1)" style="fill: #2166ac; opacity: 0.85" />
   </g>
   <g id="patch_4">
    <path d="M 258.184315 422.460624  L 357.508259 422.460624  L 357.508259 341.663459  L 258.184315 341.663459  z " clip-path="url(#p35a6d374d1)" style="fill: #2166ac; opacity: 0.85" />
   </g>
   <g id="patch_5">
    <path d="M 438.773304 422.460624  L 538.097247 422.460624  L 538.097247 292.211045  L 438.773304 292.211045  z " clip-path="url(#p35a6d374d1)" style="fill: #2166ac; opacity: 0.85" />
   </g>
   <g id="patch_6">
    <path d="M 619.362292 422.460624  L 718.686236 422.460624  L 718.686236 312.699292  L 619.362292 312.699292  z " clip-path="url(#p35a6d374d1)" style="fill: #2166ac; opacity: 0.85" />
   </g>
   <g id="patch_7">
    <path d="M 77.595327 249.236355  L 176.91927 249.236355  L 176.91927 228.728014  L 77.595327 228.728014  z " clip-path="url(#p35a6d374d1)" style="fill: #1b7837; opacity: 0.85" />
   </g>
   <g id="patch_8">
    <path d="M 258.184315 341.663459  L 357.508259 341.663459  L 357.508259 176.987742  L 258.184315 176.987742  z " clip-path="url(#p35a6d374d1)" style="fill: #1b7837; opacity: 0.85" />
   </g>
   <g id="patch_9">
    <path d="M 438.773304 292.211045  L 538.097247 292.211045  L 538.097247 161.29616  L 438.773304 161.29616  z " clip-path="url(#p35a6d374d1)" style="fill: #1b7837; opacity: 0.85" />
   </g>
   <g id="patch_10">
    <path d="M 619.362292 312.699292  L 718.686236 312.699292  L 718.686236 312.699292  L 619.362292 312.699292  z " clip-path="url(#p35a6d374d1)" style="fill: #1b7837; opacity: 0.85" />
   </g>
   <g id="patch_11">
    <path d="M 77.595327 228.728014  L 176.91927 228.728014  L 176.91927 227.29702  L 77.595327 227.29702  z " clip-path="url(#p35a6d374d1)" style="fill: #e6ab02; opacity: 0.85" />
   </g>
   <g id="patch_12">
    <path d="M 258.184315 176.987742  L 357.508259 176.987742  L 357.508259 164.186216  L 258.184315 164.186216  z " clip-path="url(#p35a6d374d1)" style="fill: #e6ab02; opacity: 0.85" />
   </g>
   <g id="patch_13">
    <path d="M 438.773304 161.29616  L 538.097247 161.29616  L 538.097247 151.186342  L 438.773304 151.186342  z " clip-path="url(#p35a6d374d1)" style="fill: #e6ab02; opacity: 0.85" />
   </g>
   <g id="patch_14">
    <path d="M 619.362292 312.699292  L 718.686236 312.699292  L 718.686236 57.934315  L 619.362292 57.934315  z " clip-path="url(#p35a6d374d1)" style="fill: #e6ab02; opacity: 0.85" />
   </g>
   <g id="matplotlib.axis_1">
    <g id="xtick_1">
     <g id="line2d_1">
      <path d="M 127.257299 422.460624  L 127.257299 39.708  " clip-path="url(#p35a6d374d1)" style="fill: none; stroke: #eeeeee; stroke-opacity: 0.75; stroke-width: 0.6; stroke-linecap: square" />
     </g>
     <g id="line2d_2">
      <defs>
       <path id="m95c326ba04" d="M 0 0  L 0 3.5  " style="stroke: #333333; stroke-width: 0.8" />
      </defs>
      <g>
       <use xlink:href="#m95c326ba04" x="127.257299" y="422.460624" style="fill: #333333; stroke: #333333; stroke-width: 0.8" />
      </g>
     </g>
     <g id="text_1">
      <!-- Autonomy Baseline -->
      <g style="fill: #333333" transform="translate(41.900967 458.798679) rotate(-15) scale(0.09 -0.09)">
       <defs>
        <path id="DejaVuSerif-41" d="M 1281 1691  L 2994 1691  L 2138 3909  L 1281 1691  z M -38 0  L -38 331  L 372 331  L 2034 4666  L 2559 4666  L 4225 331  L 4684 331  L 4684 0  L 2988 0  L 2988 331  L 3506 331  L 3116 1356  L 1153 1356  L 763 331  L 1275 331  L 1275 0  L -38 0  z " transform="scale(0.015625)" />
        <path id="DejaVuSerif-75" d="M 2266 3322  L 3341 3322  L 3341 331  L 3884 331  L 3884 0  L 2766 0  L 2766 588  Q 2606 256 2353 82  Q 2100 -91 1766 -91  Q 1213 -91 952 223  Q 691 538 691 1209  L 691 2988  L 172 2988  L 172 3322  L 1269 3322  L 1269 1388  Q 1269 781 1417 556  Q 1566 331 1947 331  Q 2347 331 2556 625  Q 2766 919 2766 1478  L 2766 2988  L 2266 2988  L 2266 3322  z " transform="scale(0.015625)" />
        <path id="DejaVuSerif-74" d="M 691 2988  L 184 2988  L 184 3322  L 691 3322  L 691 4353  L 1269 4353  L 1269 3322  L 2350 3322  L 2350 2988  L 1269 2988  L 1269 878  Q 1269 456 1350 337  Q 1431 219 1650 219  Q 1875 219 1978 351  Q 2081 484 2088 781  L 2522 781  Q 2497 328 2275 118  Q 2053 -91 1600 -91  Q 1103 -91 897 129  Q 691 350 691 878  L 691 2988  z " transform="scale(0.015625)" />
        <path id="DejaVuSerif-6f" d="M 1925 219  Q 2388 219 2623 584  Q 2859 950 2859 1663  Q 2859 2375 2623 2739  Q 2388 3103 1925 3103  Q 1463 3103 1227 2739  Q 991 2375 991 1663  Q 991 950 1228 584  Q 1466 219 1925 219  z M 1925 -91  Q 1200 -91 759 389  Q 319 869 319 1663  Q 319 2456 758 2934  Q 1197 3413 1925 3413  Q 2653 3413 3092 2934  Q 3531 2456 3531 1663  Q 3531 869 3092 389  Q 2653 -91 1925 -91  z " transform="scale(0.015625)" />
        <path id="DejaVuSerif-6e" d="M 263 0  L 263 331  L 781 331  L 781 2988  L 231 2988  L 231 3322  L 1356 3322  L 1356 2731  Q 1516 3069 1770 3241  Q 2025 3413 2363 3413  Q 2913 3413 3172 3097  Q 3431 2781 3431 2113  L 3431 331  L 3944 331  L 3944 0  L 2356 0  L 2356 331  L 2853 331  L 2853 1931  Q 2853 2541 2703 2767  Q 2553 2994 2175 2994  Q 1775 2994 1565 2701  Q 1356 2409 1356 1850  L 1356 331  L 1856 331  L 1856 0  L 263 0  z " transform="scale(0.015625)" />
        <path id="DejaVuSerif-6d" d="M 3316 2675  Q 3481 3041 3739 3227  Q 3997 3413 4341 3413  Q 4863 3413 5119 3089  Q 5375 2766 5375 2113  L 5375 331  L 5894 331  L 5894 0  L 4300 0  L 4300 331  L 4800 331  L 4800 2047  Q 4800 2556 4650 2772  Q 4500 2988 4153 2988  Q 3769 2988 3567 2697  Q 3366 2406 3366 1850  L 3366 331  L 3866 331  L 3866 0  L 2291 0  L 2291 331  L 2791 331  L 2791 2069  Q 2791 2566 2641 2777  Q 2491 2988 2144 2988  Q 1759 2988 1557 2697  Q 1356 2406 1356 1850  L 1356 331  L 1856 331  L 1856 0  L 263 0  L 263 331  L 781 331  L 781 2994  L 231 2994  L 231 3322  L 1356 3322  L 1356 2731  Q 1516 3063 1762 3238  Q 2009 3413 2322 3413  Q 2709 3413 2968 3220  Q 3228 3028 3316 2675  z " transform="scale(0.015625)" />
        <path id="DejaVuSerif-79" d="M 1381 -609  L 1600 -56  L 359 2988  L -19 2988  L -19 3322  L 1509 3322  L 1509 2988  L 978 2988  L 1913 703  L 2847 2988  L 2350 2988  L 2350 3322  L 3597 3322  L 3597 2988  L 3225 2988  L 1703 -750  Q 1547 -1138 1356 -1280  Q 1166 -1422 819 -1422  Q 672 -1422 517 -1397  Q 363 -1372 206 -1325  L 206 -691  L 500 -691  Q 519 -903 608 -995  Q 697 -1088 884 -1088  Q 1056 -1088 1161 -992  Q 1266 -897 1381 -609  z " transform="scale(0.015625)" />
        <path id="DejaVuSerif-20" transform="scale(0.015625)" />
        <path id="DejaVuSerif-42" d="M 1581 331  L 2516 331  Q 3078 331 3337 575  Q 3597 819 3597 1350  Q 3597 1878 3339 2120  Q 3081 2363 2516 2363  L 1581 2363  L 1581 331  z M 1581 2694  L 2375 2694  Q 2888 2694 3123 2891  Q 3359 3088 3359 3513  Q 3359 3941 3123 4136  Q 2888 4331 2375 4331  L 1581 4331  L 1581 2694  z M 353 0  L 353 331  L 947 331  L 947 4331  L 353 4331  L 353 4666  L 2656 4666  Q 3363 4666 3720 4377  Q 4078 4088 4078 3513  Q 4078 3097 3829 2850  Q 3581 2603 3103 2547  Q 3697 2472 4005 2167  Q 4313 1863 4313 1350  Q 4313 656 3875 328  Q 3438 0 2509 0  L 353 0  z " transform="scale(0.015625)" />
        <path id="DejaVuSerif-61" d="M 2547 1044  L 2547 1747  L 1806 1747  Q 1378 1747 1168 1562  Q 959 1378 959 997  Q 959 650 1171 447  Q 1384 244 1747 244  Q 2106 244 2326 466  Q 2547 688 2547 1044  z M 3122 2075  L 3122 331  L 3634 331  L 3634 0  L 2547 0  L 2547 359  Q 2356 128 2106 18  Q 1856 -91 1522 -91  Q 969 -91 644 203  Q 319 497 319 997  Q 319 1513 691 1797  Q 1063 2081 1741 2081  L 2547 2081  L 2547 2309  Q 2547 2688 2317 2895  Q 2088 3103 1672 3103  Q 1328 3103 1125 2947  Q 922 2791 872 2484  L 575 2484  L 575 3156  Q 875 3284 1158 3348  Q 1441 3413 1709 3413  Q 2400 3413 2761 3070  Q 3122 2728 3122 2075  z " transform="scale(0.015625)" />
        <path id="DejaVuSerif-73" d="M 359 184  L 359 959  L 691 959  Q 703 588 923 403  Q 1144 219 1575 219  Q 1963 219 2166 364  Q 2369 509 2369 788  Q 2369 1006 2220 1140  Q 2072 1275 1594 1428  L 1178 1569  Q 750 1706 558 1912  Q 366 2119 366 2438  Q 366 2894 700 3153  Q 1034 3413 1625 3413  Q 1888 3413 2178 3344  Q 2469 3275 2778 3144  L 2778 2419  L 2447 2419  Q 2434 2741 2221 2922  Q 2009 3103 1644 3103  Q 1281 3103 1095 2975  Q 909 2847 909 2591  Q 909 2381 1050 2254  Q 1191 2128 1613 1997  L 2069 1856  Q 2541 1709 2748 1489  Q 2956 1269 2956 922  Q 2956 450 2595 179  Q 2234 -91 1600 -91  Q 1278 -91 972 -22  Q 666 47 359 184  z " transform="scale(0.015625)" />
        <path id="DejaVuSerif-65" d="M 3469 1600  L 991 1600  L 991 1575  Q 991 903 1244 561  Q 1497 219 1991 219  Q 2369 219 2611 417  Q 2853 616 2950 1006  L 3413 1006  Q 3275 459 2904 184  Q 2534 -91 1931 -91  Q 1203 -91 761 389  Q 319 869 319 1663  Q 319 2450 753 2931  Q 1188 3413 1894 3413  Q 2647 3413 3050 2948  Q 3453 2484 3469 1600  z M 2791 1931  Q 2772 2513 2545 2808  Q 2319 3103 1894 3103  Q 1497 3103 1269 2806  Q 1041 2509 991 1931  L 2791 1931  z " transform="scale(0.015625)" />
        <path id="DejaVuSerif-6c" d="M 1313 331  L 1856 331  L 1856 0  L 184 0  L 184 331  L 738 331  L 738 4531  L 184 4531  L 184 4863  L 1313 4863  L 1313 331  z " transform="scale(0.015625)" />
        <path id="DejaVuSerif-69" d="M 622 4353  Q 622 4497 726 4603  Q 831 4709 978 4709  Q 1122 4709 1226 4603  Q 1331 4497 1331 4353  Q 1331 4206 1228 4103  Q 1125 4000 978 4000  Q 831 4000 726 4103  Q 622 4206 622 4353  z M 1356 331  L 1900 331  L 1900 0  L 231 0  L 231 331  L 781 331  L 781 2988  L 231 2988  L 231 3322  L 1356 3322  L 1356 331  z " transform="scale(0.015625)" />
       </defs>
       <use xlink:href="#DejaVuSerif-41" />
       <use xlink:href="#DejaVuSerif-75" transform="translate(72.216797 0)" />
       <use xlink:href="#DejaVuSerif-74" transform="translate(136.621094 0)" />
       <use xlink:href="#DejaVuSerif-6f" transform="translate(176.806641 0)" />
       <use xlink:href="#DejaVuSerif-6e" transform="translate(237.011719 0)" />
       <use xlink:href="#DejaVuSerif-6f" transform="translate(301.416016 0)" />
       <use xlink:href="#DejaVuSerif-6d" transform="translate(361.621094 0)" />
       <use xlink:href="#DejaVuSerif-79" transform="translate(456.445312 0)" />
       <use xlink:href="#DejaVuSerif-20" transform="translate(512.939453 0)" />
       <use xlink:href="#DejaVuSerif-42" transform="translate(544.726562 0)" />
       <use xlink:href="#DejaVuSerif-61" transform="translate(618.212891 0)" />
       <use xlink:href="#DejaVuSerif-73" transform="translate(677.832031 0)" />
       <use xlink:href="#DejaVuSerif-65" transform="translate(729.150391 0)" />
       <use xlink:href="#DejaVuSerif-6c" transform="translate(788.330078 0)" />
       <use xlink:href="#DejaVuSerif-69" transform="translate(820.3125 0)" />
       <use xlink:href="#DejaVuSerif-6e" transform="translate(852.294922 0)" />
       <use xlink:href="#DejaVuSerif-65" transform="translate(916.699219 0)" />
      </g>
     </g>
    </g>
    <g id="xtick_2">
     <g id="line2d_3">
      <path d="M 307.846287 422.460624  L 307.846287 39.708  " clip-path="url(#p35a6d374d1)" style="fill: none; stroke: #eeeeee; stroke-opacity: 0.75; stroke-width: 0.6; stroke-linecap: square" />
     </g>
     <g id="line2d_4">
      <g>
       <use xlink:href="#m95c326ba04" x="307.846287" y="422.460624" style="fill: #333333; stroke: #333333; stroke-width: 0.8" />
      </g>
     </g>
     <g id="text_2">
      <!-- Convenience Baseline -->
      <g style="fill: #333333" transform="translate(210.436627 462.037233) rotate(-15) scale(0.09 -0.09)">
       <defs>
        <path id="DejaVuSerif-43" d="M 4513 1234  Q 4306 581 3820 245  Q 3334 -91 2591 -91  Q 2134 -91 1743 65  Q 1353 222 1050 525  Q 700 875 529 1320  Q 359 1766 359 2328  Q 359 3416 987 4083  Q 1616 4750 2644 4750  Q 3025 4750 3456 4650  Q 3888 4550 4384 4347  L 4384 3272  L 4031 3272  Q 3916 3859 3567 4137  Q 3219 4416 2591 4416  Q 1844 4416 1459 3886  Q 1075 3356 1075 2328  Q 1075 1303 1459 773  Q 1844 244 2591 244  Q 3113 244 3450 492  Q 3788 741 3938 1234  L 4513 1234  z " transform="scale(0.015625)" />
        <path id="DejaVuSerif-76" d="M 1581 0  L 359 2988  L -19 2988  L -19 3322  L 1509 3322  L 1509 2988  L 978 2988  L 1913 703  L 2847 2988  L 2350 2988  L 2350 3322  L 3597 3322  L 3597 2988  L 3225 2988  L 2003 0  L 1581 0  z " transform="scale(0.015625)" />
        <path id="DejaVuSerif-63" d="M 3291 997  Q 3169 466 2822 187  Q 2475 -91 1925 -91  Q 1200 -91 759 389  Q 319 869 319 1663  Q 319 2459 759 2936  Q 1200 3413 1925 3413  Q 2241 3413 2553 3339  Q 2866 3266 3181 3116  L 3181 2266  L 2847 2266  Q 2781 2703 2561 2903  Q 2341 3103 1931 3103  Q 1466 3103 1228 2742  Q 991 2381 991 1663  Q 991 944 1227 581  Q 1463 219 1931 219  Q 2303 219 2525 412  Q 2747 606 2828 997  L 3291 997  z " transform="scale(0.015625)" />
       </defs>
       <use xlink:href="#DejaVuSerif-43" />
       <use xlink:href="#DejaVuSerif-6f" transform="translate(76.513672 0)" />
       <use xlink:href="#DejaVuSerif-6e" transform="translate(136.71875 0)" />
       <use xlink:href="#DejaVuSerif-76" transform="translate(201.123047 0)" />
       <use xlink:href="#DejaVuSerif-65" transform="translate(257.617188 0)" />
       <use xlink:href="#DejaVuSerif-6e" transform="translate(316.796875 0)" />
       <use xlink:href="#DejaVuSerif-69" transform="translate(381.201172 0)" />
       <use xlink:href="#DejaVuSerif-65" transform="translate(413.183594 0)" />
       <use xlink:href="#DejaVuSerif-6e" transform="translate(472.363281 0)" />
       <use xlink:href="#DejaVuSerif-63" transform="translate(536.767578 0)" />
       <use xlink:href="#DejaVuSerif-65" transform="translate(592.773438 0)" />
       <use xlink:href="#DejaVuSerif-20" transform="translate(651.953125 0)" />
       <use xlink:href="#DejaVuSerif-42" transform="translate(683.740234 0)" />
       <use xlink:href="#DejaVuSerif-61" transform="translate(757.226562 0)" />
       <use xlink:href="#DejaVuSerif-73" transform="translate(816.845703 0)" />
       <use xlink:href="#DejaVuSerif-65" transform="translate(868.164062 0)" />
       <use xlink:href="#DejaVuSerif-6c" transform="translate(927.34375 0)" />
       <use xlink:href="#DejaVuSerif-69" transform="translate(959.326172 0)" />
       <use xlink:href="#DejaVuSerif-6e" transform="translate(991.308594 0)" />
       <use xlink:href="#DejaVuSerif-65" transform="translate(1055.712891 0)" />
      </g>
     </g>
    </g>
    <g id="xtick_3">
     <g id="line2d_5">
      <path d="M 488.435275 422.460624  L 488.435275 39.708  " clip-path="url(#p35a6d374d1)" style="fill: none; stroke: #eeeeee; stroke-opacity: 0.75; stroke-width: 0.6; stroke-linecap: square" />
     </g>
     <g id="line2d_6">
      <g>
       <use xlink:href="#m95c326ba04" x="488.435275" y="422.460624" style="fill: #333333; stroke: #333333; stroke-width: 0.8" />
      </g>
     </g>
     <g id="text_3">
      <!-- Threshold Pressure -->
      <g style="fill: #333333" transform="translate(401.880056 459.128795) rotate(-15) scale(0.09 -0.09)">
       <defs>
        <path id="DejaVuSerif-54" d="M 1222 0  L 1222 331  L 1819 331  L 1819 4294  L 447 4294  L 447 3566  L 63 3566  L 63 4666  L 4206 4666  L 4206 3566  L 3822 3566  L 3822 4294  L 2450 4294  L 2450 331  L 3047 331  L 3047 0  L 1222 0  z " transform="scale(0.015625)" />
        <path id="DejaVuSerif-68" d="M 263 0  L 263 331  L 781 331  L 781 4531  L 231 4531  L 231 4863  L 1356 4863  L 1356 2731  Q 1516 3069 1770 3241  Q 2025 3413 2363 3413  Q 2913 3413 3172 3097  Q 3431 2781 3431 2113  L 3431 331  L 3944 331  L 3944 0  L 2356 0  L 2356 331  L 2853 331  L 2853 1931  Q 2853 2541 2704 2764  Q 2556 2988 2175 2988  Q 1775 2988 1565 2697  Q 1356 2406 1356 1850  L 1356 331  L 1856 331  L 1856 0  L 263 0  z " transform="scale(0.015625)" />
        <path id="DejaVuSerif-72" d="M 3059 3328  L 3059 2497  L 2728 2497  Q 2713 2744 2591 2866  Q 2469 2988 2234 2988  Q 1809 2988 1582 2694  Q 1356 2400 1356 1850  L 1356 331  L 2022 331  L 2022 0  L 263 0  L 263 331  L 781 331  L 781 2994  L 231 2994  L 231 3322  L 1356 3322  L 1356 2731  Q 1525 3078 1790 3245  Q 2056 3413 2438 3413  Q 2578 3413 2733 3391  Q 2888 3369 3059 3328  z " transform="scale(0.015625)" />
        <path id="DejaVuSerif-64" d="M 3359 331  L 3909 331  L 3909 0  L 2784 0  L 2784 519  Q 2616 206 2355 57  Q 2094 -91 1709 -91  Q 1097 -91 708 395  Q 319 881 319 1663  Q 319 2444 706 2928  Q 1094 3413 1709 3413  Q 2094 3413 2355 3264  Q 2616 3116 2784 2803  L 2784 4531  L 2241 4531  L 2241 4863  L 3359 4863  L 3359 331  z M 2784 1497  L 2784 1825  Q 2784 2422 2554 2737  Q 2325 3053 1888 3053  Q 1444 3053 1217 2703  Q 991 2353 991 1663  Q 991 975 1217 622  Q 1444 269 1888 269  Q 2325 269 2554 583  Q 2784 897 2784 1497  z " transform="scale(0.015625)" />
        <path id="DejaVuSerif-50" d="M 1581 2375  L 2406 2375  Q 2872 2375 3115 2626  Q 3359 2878 3359 3353  Q 3359 3831 3115 4081  Q 2872 4331 2406 4331  L 1581 4331  L 1581 2375  z M 353 0  L 353 331  L 947 331  L 947 4331  L 353 4331  L 353 4666  L 2559 4666  Q 3259 4666 3668 4311  Q 4078 3956 4078 3353  Q 4078 2753 3668 2397  Q 3259 2041 2559 2041  L 1581 2041  L 1581 331  L 2303 331  L 2303 0  L 353 0  z " transform="scale(0.015625)" />
       </defs>
       <use xlink:href="#DejaVuSerif-54" />
       <use xlink:href="#DejaVuSerif-68" transform="translate(66.699219 0)" />
       <use xlink:href="#DejaVuSerif-72" transform="translate(131.103516 0)" />
       <use xlink:href="#DejaVuSerif-65" transform="translate(178.90625 0)" />
       <use xlink:href="#DejaVuSerif-73" transform="translate(238.085938 0)" />
       <use xlink:href="#DejaVuSerif-68" transform="translate(289.404297 0)" />
       <use xlink:href="#DejaVuSerif-6f" transform="translate(353.808594 0)" />
       <use xlink:href="#DejaVuSerif-6c" transform="translate(414.013672 0)" />
       <use xlink:href="#DejaVuSerif-64" transform="translate(445.996094 0)" />
       <use xlink:href="#DejaVuSerif-20" transform="translate(510.009766 0)" />
       <use xlink:href="#DejaVuSerif-50" transform="translate(541.796875 0)" />
       <use xlink:href="#DejaVuSerif-72" transform="translate(609.082031 0)" />
       <use xlink:href="#DejaVuSerif-65" transform="translate(656.884766 0)" />
       <use xlink:href="#DejaVuSerif-73" transform="translate(716.064453 0)" />
       <use xlink:href="#DejaVuSerif-73" transform="translate(767.382812 0)" />
       <use xlink:href="#DejaVuSerif-75" transform="translate(818.701172 0)" />
       <use xlink:href="#DejaVuSerif-72" transform="translate(883.105469 0)" />
       <use xlink:href="#DejaVuSerif-65" transform="translate(930.908203 0)" />
      </g>
     </g>
    </g>
    <g id="xtick_4">
     <g id="line2d_7">
      <path d="M 669.024264 422.460624  L 669.024264 39.708  " clip-path="url(#p35a6d374d1)" style="fill: none; stroke: #eeeeee; stroke-opacity: 0.75; stroke-width: 0.6; stroke-linecap: square" />
     </g>
     <g id="line2d_8">
      <g>
       <use xlink:href="#m95c326ba04" x="669.024264" y="422.460624" style="fill: #333333; stroke: #333333; stroke-width: 0.8" />
      </g>
     </g>
     <g id="text_4">
      <!-- Overloaded Convenience -->
      <g style="fill: #333333" transform="translate(558.285281 465.608815) rotate(-15) scale(0.09 -0.09)">
       <defs>
        <path id="DejaVuSerif-4f" d="M 2625 244  Q 3391 244 3781 770  Q 4172 1297 4172 2328  Q 4172 3363 3781 3889  Q 3391 4416 2625 4416  Q 1856 4416 1465 3889  Q 1075 3363 1075 2328  Q 1075 1297 1465 770  Q 1856 244 2625 244  z M 2625 -91  Q 2150 -91 1751 65  Q 1353 222 1050 525  Q 700 875 529 1319  Q 359 1763 359 2328  Q 359 2894 529 3339  Q 700 3784 1050 4134  Q 1356 4441 1750 4595  Q 2144 4750 2625 4750  Q 3641 4750 4266 4084  Q 4891 3419 4891 2328  Q 4891 1769 4719 1320  Q 4547 872 4197 525  Q 3891 219 3497 64  Q 3103 -91 2625 -91  z " transform="scale(0.015625)" />
       </defs>
       <use xlink:href="#DejaVuSerif-4f" />
       <use xlink:href="#DejaVuSerif-76" transform="translate(81.982422 0)" />
       <use xlink:href="#DejaVuSerif-65" transform="translate(138.476562 0)" />
       <use xlink:href="#DejaVuSerif-72" transform="translate(197.65625 0)" />
       <use xlink:href="#DejaVuSerif-6c" transform="translate(245.458984 0)" />
       <use xlink:href="#DejaVuSerif-6f" transform="translate(277.441406 0)" />
       <use xlink:href="#DejaVuSerif-61" transform="translate(337.646484 0)" />
       <use xlink:href="#DejaVuSerif-64" transform="translate(397.265625 0)" />
       <use xlink:href="#DejaVuSerif-65" transform="translate(461.279297 0)" />
       <use xlink:href="#DejaVuSerif-64" transform="translate(520.458984 0)" />
       <use xlink:href="#DejaVuSerif-20" transform="translate(584.472656 0)" />
       <use xlink:href="#DejaVuSerif-43" transform="translate(616.259766 0)" />
       <use xlink:href="#DejaVuSerif-6f" transform="translate(692.773438 0)" />
       <use xlink:href="#DejaVuSerif-6e" transform="translate(752.978516 0)" />
       <use xlink:href="#DejaVuSerif-76" transform="translate(817.382812 0)" />
       <use xlink:href="#DejaVuSerif-65" transform="translate(873.876953 0)" />
       <use xlink:href="#DejaVuSerif-6e" transform="translate(933.056641 0)" />
       <use xlink:href="#DejaVuSerif-69" transform="translate(997.460938 0)" />
       <use xlink:href="#DejaVuSerif-65" transform="translate(1029.443359 0)" />
       <use xlink:href="#DejaVuSerif-6e" transform="translate(1088.623047 0)" />
       <use xlink:href="#DejaVuSerif-63" transform="translate(1153.027344 0)" />
       <use xlink:href="#DejaVuSerif-65" transform="translate(1209.033203 0)" />
      </g>
     </g>
    </g>
   </g>
   <g id="matplotlib.axis_2">
    <g id="ytick_1">
     <g id="line2d_9">
      <path d="M 45.540781 422.460624  L 750.740781 422.460624  " clip-path="url(#p35a6d374d1)" style="fill: none; stroke: #eeeeee; stroke-opacity: 0.75; stroke-width: 0.6; stroke-linecap: square" />
     </g>
     <g id="line2d_10">
      <defs>
       <path id="me16022c42a" d="M 0 0  L -3.5 0  " style="stroke: #333333; stroke-width: 0.8" />
      </defs>
      <g>
       <use xlink:href="#me16022c42a" x="45.540781" y="422.460624" style="fill: #333333; stroke: #333333; stroke-width: 0.8" />
      </g>
     </g>
     <g id="text_5">
      <!-- 0 -->
      <g style="fill: #333333" transform="translate(32.814531 425.879921) scale(0.09 -0.09)">
       <defs>
        <path id="DejaVuSerif-30" d="M 2034 219  Q 2513 219 2750 744  Q 2988 1269 2988 2328  Q 2988 3391 2750 3916  Q 2513 4441 2034 4441  Q 1556 4441 1318 3916  Q 1081 3391 1081 2328  Q 1081 1269 1318 744  Q 1556 219 2034 219  z M 2034 -91  Q 1275 -91 848 546  Q 422 1184 422 2328  Q 422 3475 848 4112  Q 1275 4750 2034 4750  Q 2797 4750 3222 4112  Q 3647 3475 3647 2328  Q 3647 1184 3222 546  Q 2797 -91 2034 -91  z " transform="scale(0.015625)" />
       </defs>
       <use xlink:href="#DejaVuSerif-30" />
      </g>
     </g>
    </g>
    <g id="ytick_2">
     <g id="line2d_11">
      <path d="M 45.540781 376.894835  L 750.740781 376.894835  " clip-path="url(#p35a6d374d1)" style="fill: none; stroke: #eeeeee; stroke-opacity: 0.75; stroke-width: 0.6; stroke-linecap: square" />
     </g>
     <g id="line2d_12">
      <g>
       <use xlink:href="#me16022c42a" x="45.540781" y="376.894835" style="fill: #333333; stroke: #333333; stroke-width: 0.8" />
      </g>
     </g>
     <g id="text_6">
      <!-- 100 -->
      <g style="fill: #333333" transform="translate(21.362031 380.314132) scale(0.09 -0.09)">
       <defs>
        <path id="DejaVuSerif-31" d="M 909 0  L 909 331  L 1722 331  L 1722 4213  L 781 3603  L 781 4013  L 1919 4750  L 2350 4750  L 2350 331  L 3163 331  L 3163 0  L 909 0  z " transform="scale(0.015625)" />
       </defs>
       <use xlink:href="#DejaVuSerif-31" />
       <use xlink:href="#DejaVuSerif-30" transform="translate(63.623047 0)" />
       <use xlink:href="#DejaVuSerif-30" transform="translate(127.246094 0)" />
      </g>
     </g>
    </g>
    <g id="ytick_3">
     <g id="line2d_13">
      <path d="M 45.540781 331.329047  L 750.740781 331.329047  " clip-path="url(#p35a6d374d1)" style="fill: none; stroke: #eeeeee; stroke-opacity: 0.75; stroke-width: 0.6; stroke-linecap: square" />
     </g>
     <g id="line2d_14">
      <g>
       <use xlink:href="#me16022c42a" x="45.540781" y="331.329047" style="fill: #333333; stroke: #333333; stroke-width: 0.8" />
      </g>
     </g>
     <g id="text_7">
      <!-- 200 -->
      <g style="fill: #333333" transform="translate(21.362031 334.748344) scale(0.09 -0.09)">
       <defs>
        <path id="DejaVuSerif-32" d="M 819 3553  L 469 3553  L 469 4384  Q 803 4563 1142 4656  Q 1481 4750 1806 4750  Q 2534 4750 2956 4397  Q 3378 4044 3378 3438  Q 3378 2753 2422 1800  Q 2347 1728 2309 1691  L 1131 513  L 3078 513  L 3078 1088  L 3444 1088  L 3444 0  L 434 0  L 434 341  L 1850 1753  Q 2319 2222 2519 2614  Q 2719 3006 2719 3438  Q 2719 3909 2473 4175  Q 2228 4441 1797 4441  Q 1350 4441 1106 4219  Q 863 3997 819 3553  z " transform="scale(0.015625)" />
       </defs>
       <use xlink:href="#DejaVuSerif-32" />
       <use xlink:href="#DejaVuSerif-30" transform="translate(63.623047 0)" />
       <use xlink:href="#DejaVuSerif-30" transform="translate(127.246094 0)" />
      </g>
     </g>
    </g>
    <g id="ytick_4">
     <g id="line2d_15">
      <path d="M 45.540781 285.763258  L 750.740781 285.763258  " clip-path="url(#p35a6d374d1)" style="fill: none; stroke: #eeeeee; stroke-opacity: 0.75; stroke-width: 0.6; stroke-linecap: square" />
     </g>
     <g id="line2d_16">
      <g>
       <use xlink:href="#me16022c42a" x="45.540781" y="285.763258" style="fill: #333333; stroke: #333333; stroke-width: 0.8" />
      </g>
     </g>
     <g id="text_8">
      <!-- 300 -->
      <g style="fill: #333333" transform="translate(21.362031 289.182555) scale(0.09 -0.09)">
       <defs>
        <path id="DejaVuSerif-33" d="M 622 4469  Q 988 4606 1323 4678  Q 1659 4750 1953 4750  Q 2638 4750 3022 4454  Q 3406 4159 3406 3634  Q 3406 3213 3140 2930  Q 2875 2647 2388 2547  Q 2963 2466 3280 2130  Q 3597 1794 3597 1259  Q 3597 606 3158 257  Q 2719 -91 1894 -91  Q 1528 -91 1179 -12  Q 831 66 488 225  L 488 1131  L 838 1131  Q 869 681 1141 450  Q 1413 219 1906 219  Q 2384 219 2661 495  Q 2938 772 2938 1253  Q 2938 1803 2653 2086  Q 2369 2369 1819 2369  L 1522 2369  L 1522 2688  L 1678 2688  Q 2225 2688 2498 2914  Q 2772 3141 2772 3597  Q 2772 4006 2547 4223  Q 2322 4441 1900 4441  Q 1478 4441 1245 4241  Q 1013 4041 972 3647  L 622 3647  L 622 4469  z " transform="scale(0.015625)" />
       </defs>
       <use xlink:href="#DejaVuSerif-33" />
       <use xlink:href="#DejaVuSerif-30" transform="translate(63.623047 0)" />
       <use xlink:href="#DejaVuSerif-30" transform="translate(127.246094 0)" />
      </g>
     </g>
    </g>
    <g id="ytick_5">
     <g id="line2d_17">
      <path d="M 45.540781 240.19747  L 750.740781 240.19747  " clip-path="url(#p35a6d374d1)" style="fill: none; stroke: #eeeeee; stroke-opacity: 0.75; stroke-width: 0.6; stroke-linecap: square" />
     </g>
     <g id="line2d_18">
      <g>
       <use xlink:href="#me16022c42a" x="45.540781" y="240.19747" style="fill: #333333; stroke: #333333; stroke-width: 0.8" />
      </g>
     </g>
     <g id="text_9">
      <!-- 400 -->
      <g style="fill: #333333" transform="translate(21.362031 243.616766) scale(0.09 -0.09)">
       <defs>
        <path id="DejaVuSerif-34" d="M 2234 1581  L 2234 4063  L 641 1581  L 2234 1581  z M 3609 0  L 1484 0  L 1484 331  L 2234 331  L 2234 1247  L 197 1247  L 197 1588  L 2241 4750  L 2859 4750  L 2859 1581  L 3750 1581  L 3750 1247  L 2859 1247  L 2859 331  L 3609 331  L 3609 0  z " transform="scale(0.015625)" />
       </defs>
       <use xlink:href="#DejaVuSerif-34" />
       <use xlink:href="#DejaVuSerif-30" transform="translate(63.623047 0)" />
       <use xlink:href="#DejaVuSerif-30" transform="translate(127.246094 0)" />
      </g>
     </g>
    </g>
    <g id="ytick_6">
     <g id="line2d_19">
      <path d="M 45.540781 194.631681  L 750.740781 194.631681  " clip-path="url(#p35a6d374d1)" style="fill: none; stroke: #eeeeee; stroke-opacity: 0.75; stroke-width: 0.6; stroke-linecap: square" />
     </g>
     <g id="line2d_20">
      <g>
       <use xlink:href="#me16022c42a" x="45.540781" y="194.631681" style="fill: #333333; stroke: #333333; stroke-width: 0.8" />
      </g>
     </g>
     <g id="text_10">
      <!-- 500 -->
      <g style="fill: #333333" transform="translate(21.362031 198.050978) scale(0.09 -0.09)">
       <defs>
        <path id="DejaVuSerif-35" d="M 3219 4666  L 3219 4153  L 1081 4153  L 1081 2816  Q 1244 2928 1461 2984  Q 1678 3041 1947 3041  Q 2703 3041 3140 2622  Q 3578 2203 3578 1478  Q 3578 738 3136 323  Q 2694 -91 1894 -91  Q 1572 -91 1234 -12  Q 897 66 544 225  L 544 1131  L 897 1131  Q 925 688 1179 453  Q 1434 219 1894 219  Q 2388 219 2653 544  Q 2919 869 2919 1478  Q 2919 2084 2655 2407  Q 2391 2731 1894 2731  Q 1613 2731 1398 2631  Q 1184 2531 1019 2322  L 750 2322  L 750 4666  L 3219 4666  z " transform="scale(0.015625)" />
       </defs>
       <use xlink:href="#DejaVuSerif-35" />
       <use xlink:href="#DejaVuSerif-30" transform="translate(63.623047 0)" />
       <use xlink:href="#DejaVuSerif-30" transform="translate(127.246094 0)" />
      </g>
     </g>
    </g>
    <g id="ytick_7">
     <g id="line2d_21">
      <path d="M 45.540781 149.065892  L 750.740781 149.065892  " clip-path="url(#p35a6d374d1)" style="fill: none; stroke: #eeeeee; stroke-opacity: 0.75; stroke-width: 0.6; stroke-linecap: square" />
     </g>
     <g id="line2d_22">
      <g>
       <use xlink:href="#me16022c42a" x="45.540781" y="149.065892" style="fill: #333333; stroke: #333333; stroke-width: 0.8" />
      </g>
     </g>
     <g id="text_11">
      <!-- 600 -->
      <g style="fill: #333333" transform="translate(21.362031 152.485189) scale(0.09 -0.09)">
       <defs>
        <path id="DejaVuSerif-36" d="M 2094 219  Q 2534 219 2771 542  Q 3009 866 3009 1472  Q 3009 2078 2771 2401  Q 2534 2725 2094 2725  Q 1647 2725 1412 2412  Q 1178 2100 1178 1509  Q 1178 888 1415 553  Q 1653 219 2094 219  z M 1075 2569  Q 1288 2803 1556 2918  Q 1825 3034 2163 3034  Q 2859 3034 3264 2615  Q 3669 2197 3669 1472  Q 3669 763 3233 336  Q 2797 -91 2069 -91  Q 1278 -91 853 498  Q 428 1088 428 2181  Q 428 3406 931 4078  Q 1434 4750 2350 4750  Q 2597 4750 2869 4703  Q 3141 4656 3425 4563  L 3425 3794  L 3072 3794  Q 3034 4109 2831 4275  Q 2628 4441 2284 4441  Q 1678 4441 1381 3981  Q 1084 3522 1075 2569  z " transform="scale(0.015625)" />
       </defs>
       <use xlink:href="#DejaVuSerif-36" />
       <use xlink:href="#DejaVuSerif-30" transform="translate(63.623047 0)" />
       <use xlink:href="#DejaVuSerif-30" transform="translate(127.246094 0)" />
      </g>
     </g>
    </g>
    <g id="ytick_8">
     <g id="line2d_23">
      <path d="M 45.540781 103.500104  L 750.740781 103.500104  " clip-path="url(#p35a6d374d1)" style="fill: none; stroke: #eeeeee; stroke-opacity: 0.75; stroke-width: 0.6; stroke-linecap: square" />
     </g>
     <g id="line2d_24">
      <g>
       <use xlink:href="#me16022c42a" x="45.540781" y="103.500104" style="fill: #333333; stroke: #333333; stroke-width: 0.8" />
      </g>
     </g>
     <g id="text_12">
      <!-- 700 -->
      <g style="fill: #333333" transform="translate(21.362031 106.919401) scale(0.09 -0.09)">
       <defs>
        <path id="DejaVuSerif-37" d="M 3609 4347  L 1784 0  L 1319 0  L 3059 4153  L 903 4153  L 903 3578  L 538 3578  L 538 4666  L 3609 4666  L 3609 4347  z " transform="scale(0.015625)" />
       </defs>
       <use xlink:href="#DejaVuSerif-37" />
       <use xlink:href="#DejaVuSerif-30" transform="translate(63.623047 0)" />
       <use xlink:href="#DejaVuSerif-30" transform="translate(127.246094 0)" />
      </g>
     </g>
    </g>
    <g id="ytick_9">
     <g id="line2d_25">
      <path d="M 45.540781 57.934315  L 750.740781 57.934315  " clip-path="url(#p35a6d374d1)" style="fill: none; stroke: #eeeeee; stroke-opacity: 0.75; stroke-width: 0.6; stroke-linecap: square" />
     </g>
     <g id="line2d_26">
      <g>
       <use xlink:href="#me16022c42a" x="45.540781" y="57.934315" style="fill: #333333; stroke: #333333; stroke-width: 0.8" />
      </g>
     </g>
     <g id="text_13">
      <!-- 800 -->
      <g style="fill: #333333" transform="translate(21.362031 61.353612) scale(0.09 -0.09)">
       <defs>
        <path id="DejaVuSerif-38" d="M 2981 1275  Q 2981 1775 2732 2051  Q 2484 2328 2034 2328  Q 1584 2328 1336 2051  Q 1088 1775 1088 1275  Q 1088 772 1336 495  Q 1584 219 2034 219  Q 2484 219 2732 495  Q 2981 772 2981 1275  z M 2853 3541  Q 2853 3966 2637 4203  Q 2422 4441 2034 4441  Q 1650 4441 1433 4203  Q 1216 3966 1216 3541  Q 1216 3113 1433 2875  Q 1650 2638 2034 2638  Q 2422 2638 2637 2875  Q 2853 3113 2853 3541  z M 2516 2484  Q 3047 2413 3344 2092  Q 3641 1772 3641 1275  Q 3641 619 3225 264  Q 2809 -91 2034 -91  Q 1263 -91 845 264  Q 428 619 428 1275  Q 428 1772 725 2092  Q 1022 2413 1556 2484  Q 1084 2569 832 2842  Q 581 3116 581 3541  Q 581 4103 968 4426  Q 1356 4750 2034 4750  Q 2713 4750 3100 4426  Q 3488 4103 3488 3541  Q 3488 3116 3236 2842  Q 2984 2569 2516 2484  z " transform="scale(0.015625)" />
       </defs>
       <use xlink:href="#DejaVuSerif-38" />
       <use xlink:href="#DejaVuSerif-30" transform="translate(63.623047 0)" />
       <use xlink:href="#DejaVuSerif-30" transform="translate(127.246094 0)" />
      </g>
     </g>
    </g>
    <g id="text_14">
     <!-- Tail Labor Hours -->
     <g style="fill: #2e2e2e" transform="translate(15.178359 275.975913) rotate(-90) scale(0.105 -0.105)">
      <defs>
       <path id="DejaVuSerif-4c" d="M 353 0  L 353 331  L 947 331  L 947 4331  L 353 4331  L 353 4666  L 2175 4666  L 2175 4331  L 1581 4331  L 1581 384  L 3713 384  L 3713 1166  L 4097 1166  L 4097 0  L 353 0  z " transform="scale(0.015625)" />
       <path id="DejaVuSerif-62" d="M 738 331  L 738 4531  L 184 4531  L 184 4863  L 1313 4863  L 1313 2803  Q 1481 3116 1742 3264  Q 2003 3413 2388 3413  Q 3000 3413 3387 2928  Q 3775 2444 3775 1663  Q 3775 881 3387 395  Q 3000 -91 2388 -91  Q 2003 -91 1742 57  Q 1481 206 1313 519  L 1313 0  L 184 0  L 184 331  L 738 331  z M 1313 1497  Q 1313 897 1542 583  Q 1772 269 2209 269  Q 2650 269 2876 622  Q 3103 975 3103 1663  Q 3103 2353 2876 2703  Q 2650 3053 2209 3053  Q 1772 3053 1542 2737  Q 1313 2422 1313 1825  L 1313 1497  z " transform="scale(0.015625)" />
       <path id="DejaVuSerif-48" d="M 353 0  L 353 331  L 947 331  L 947 4331  L 353 4331  L 353 4666  L 2175 4666  L 2175 4331  L 1581 4331  L 1581 2719  L 4000 2719  L 4000 4331  L 3406 4331  L 3406 4666  L 5228 4666  L 5228 4331  L 4634 4331  L 4634 331  L 5228 331  L 5228 0  L 3406 0  L 3406 331  L 4000 331  L 4000 2338  L 1581 2338  L 1581 331  L 2175 331  L 2175 0  L 353 0  z " transform="scale(0.015625)" />
      </defs>
      <use xlink:href="#DejaVuSerif-54" />
      <use xlink:href="#DejaVuSerif-61" transform="translate(58.949219 0)" />
      <use xlink:href="#DejaVuSerif-69" transform="translate(118.568359 0)" />
      <use xlink:href="#DejaVuSerif-6c" transform="translate(150.550781 0)" />
      <use xlink:href="#DejaVuSerif-20" transform="translate(182.533203 0)" />
      <use xlink:href="#DejaVuSerif-4c" transform="translate(214.320312 0)" />
      <use xlink:href="#DejaVuSerif-61" transform="translate(280.726562 0)" />
      <use xlink:href="#DejaVuSerif-62" transform="translate(340.345703 0)" />
      <use xlink:href="#DejaVuSerif-6f" transform="translate(404.359375 0)" />
      <use xlink:href="#DejaVuSerif-72" transform="translate(464.564453 0)" />
      <use xlink:href="#DejaVuSerif-20" transform="translate(512.367188 0)" />
      <use xlink:href="#DejaVuSerif-48" transform="translate(544.154297 0)" />
      <use xlink:href="#DejaVuSerif-6f" transform="translate(631.361328 0)" />
      <use xlink:href="#DejaVuSerif-75" transform="translate(691.566406 0)" />
      <use xlink:href="#DejaVuSerif-72" transform="translate(755.970703 0)" />
      <use xlink:href="#DejaVuSerif-73" transform="translate(803.773438 0)" />
     </g>
    </g>
   </g>
   <g id="patch_15">
    <path d="M 45.540781 422.460624  L 45.540781 39.708  " style="fill: none; stroke: #444444; stroke-width: 0.9; stroke-linejoin: miter; stroke-linecap: square" />
   </g>
   <g id="patch_16">
    <path d="M 45.540781 422.460624  L 750.740781 422.460624  " style="fill: none; stroke: #444444; stroke-width: 0.9; stroke-linejoin: miter; stroke-linecap: square" />
   </g>
   <g id="legend_1">
    <g id="patch_17">
     <path d="M 51.840781 86.538937  L 144.449375 86.538937  Q 146.249375 86.538937 146.249375 84.738937  L 146.249375 46.008  Q 146.249375 44.208 144.449375 44.208  L 51.840781 44.208  Q 50.040781 44.208 50.040781 46.008  L 50.040781 84.738937  Q 50.040781 86.538937 51.840781 86.538937  z " style="fill: #ffffff; opacity: 0.95; stroke: #d9d9d9; stroke-width: 0.8; stroke-linejoin: miter" />
    </g>
    <g id="patch_18">
     <path d="M 53.640781 54.646594  L 71.640781 54.646594  L 71.640781 48.346594  L 53.640781 48.346594  z " style="fill: #2166ac; opacity: 0.85" />
    </g>
    <g id="text_15">
     <!-- Self Labor -->
     <g transform="translate(78.840781 54.646594) scale(0.09 -0.09)">
      <defs>
       <path id="DejaVuSerif-53" d="M 594 225  L 594 1288  L 953 1284  Q 969 753 1261 498  Q 1553 244 2150 244  Q 2706 244 2998 464  Q 3291 684 3291 1106  Q 3291 1444 3114 1625  Q 2938 1806 2369 1978  L 1753 2163  Q 1084 2366 811 2669  Q 538 2972 538 3500  Q 538 4094 959 4422  Q 1381 4750 2144 4750  Q 2469 4750 2856 4679  Q 3244 4609 3681 4475  L 3681 3481  L 3328 3481  Q 3275 3975 2998 4195  Q 2722 4416 2156 4416  Q 1663 4416 1405 4214  Q 1147 4013 1147 3628  Q 1147 3294 1340 3103  Q 1534 2913 2163 2725  L 2741 2553  Q 3375 2363 3645 2067  Q 3916 1772 3916 1275  Q 3916 597 3481 253  Q 3047 -91 2188 -91  Q 1803 -91 1404 -12  Q 1006 66 594 225  z " transform="scale(0.015625)" />
       <path id="DejaVuSerif-66" d="M 2753 4078  L 2450 4078  Q 2447 4313 2317 4434  Q 2188 4556 1941 4556  Q 1619 4556 1487 4379  Q 1356 4203 1356 3750  L 1356 3322  L 2284 3322  L 2284 2988  L 1356 2988  L 1356 331  L 2094 331  L 2094 0  L 231 0  L 231 331  L 781 331  L 781 2988  L 231 2988  L 231 3322  L 781 3322  L 781 3738  Q 781 4294 1070 4578  Q 1359 4863 1919 4863  Q 2128 4863 2337 4825  Q 2547 4788 2753 4709  L 2753 4078  z " transform="scale(0.015625)" />
      </defs>
      <use xlink:href="#DejaVuSerif-53" />
      <use xlink:href="#DejaVuSerif-65" transform="translate(68.505859 0)" />
      <use xlink:href="#DejaVuSerif-6c" transform="translate(127.685547 0)" />
      <use xlink:href="#DejaVuSerif-66" transform="translate(159.667969 0)" />
      <use xlink:href="#DejaVuSerif-20" transform="translate(196.679688 0)" />
      <use xlink:href="#DejaVuSerif-4c" transform="translate(228.466797 0)" />
      <use xlink:href="#DejaVuSerif-61" transform="translate(294.873047 0)" />
      <use xlink:href="#DejaVuSerif-62" transform="translate(354.492188 0)" />
      <use xlink:href="#DejaVuSerif-6f" transform="translate(418.505859 0)" />
      <use xlink:href="#DejaVuSerif-72" transform="translate(478.710938 0)" />
     </g>
    </g>
    <g id="patch_19">
     <path d="M 53.640781 67.856906  L 71.640781 67.856906  L 71.640781 61.556906  L 53.640781 61.556906  z " style="fill: #1b7837; opacity: 0.85" />
    </g>
    <g id="text_16">
     <!-- Service Labor -->
     <g transform="translate(78.840781 67.856906) scale(0.09 -0.09)">
      <use xlink:href="#DejaVuSerif-53" />
      <use xlink:href="#DejaVuSerif-65" transform="translate(68.505859 0)" />
      <use xlink:href="#DejaVuSerif-72" transform="translate(127.685547 0)" />
      <use xlink:href="#DejaVuSerif-76" transform="translate(175.488281 0)" />
      <use xlink:href="#DejaVuSerif-69" transform="translate(231.982422 0)" />
      <use xlink:href="#DejaVuSerif-63" transform="translate(263.964844 0)" />
      <use xlink:href="#DejaVuSerif-65" transform="translate(319.970703 0)" />
      <use xlink:href="#DejaVuSerif-20" transform="translate(379.150391 0)" />
      <use xlink:href="#DejaVuSerif-4c" transform="translate(410.9375 0)" />
      <use xlink:href="#DejaVuSerif-61" transform="translate(477.34375 0)" />
      <use xlink:href="#DejaVuSerif-62" transform="translate(536.962891 0)" />
      <use xlink:href="#DejaVuSerif-6f" transform="translate(600.976562 0)" />
      <use xlink:href="#DejaVuSerif-72" transform="translate(661.181641 0)" />
     </g>
    </g>
    <g id="patch_20">
     <path d="M 53.640781 81.067219  L 71.640781 81.067219  L 71.640781 74.767219  L 53.640781 74.767219  z " style="fill: #e6ab02; opacity: 0.85" />
    </g>
    <g id="text_17">
     <!-- Coordination -->
     <g transform="translate(78.840781 81.067219) scale(0.09 -0.09)">
      <use xlink:href="#DejaVuSerif-43" />
      <use xlink:href="#DejaVuSerif-6f" transform="translate(76.513672 0)" />
      <use xlink:href="#DejaVuSerif-6f" transform="translate(136.71875 0)" />
      <use xlink:href="#DejaVuSerif-72" transform="translate(196.923828 0)" />
      <use xlink:href="#DejaVuSerif-64" transform="translate(244.726562 0)" />
      <use xlink:href="#DejaVuSerif-69" transform="translate(308.740234 0)" />
      <use xlink:href="#DejaVuSerif-6e" transform="translate(340.722656 0)" />
      <use xlink:href="#DejaVuSerif-61" transform="translate(405.126953 0)" />
      <use xlink:href="#DejaVuSerif-74" transform="translate(464.746094 0)" />
      <use xlink:href="#DejaVuSerif-69" transform="translate(504.931641 0)" />
      <use xlink:href="#DejaVuSerif-6f" transform="translate(536.914062 0)" />
      <use xlink:href="#DejaVuSerif-6e" transform="translate(597.119141 0)" />
     </g>
    </g>
   </g>
  </g>
  <g id="axes_2">
   <g id="matplotlib.axis_3">
    <g id="ytick_10">
     <g id="line2d_27">
      <path d="M 45.540781 384.488469  L 750.740781 384.488469  " clip-path="url(#p35a6d374d1)" style="fill: none; stroke: #eeeeee; stroke-opacity: 0.75; stroke-width: 0.6; stroke-linecap: square" />
     </g>
     <g id="line2d_28">
      <defs>
       <path id="ma11cc4bf42" d="M 0 0  L 3.5 0  " style="stroke: #333333; stroke-width: 0.8" />
      </defs>
      <g>
       <use xlink:href="#ma11cc4bf42" x="750.740781" y="384.488469" style="fill: #333333; stroke: #333333; stroke-width: 0.8" />
      </g>
     </g>
     <g id="text_18">
      <!-- −300000 -->
      <g style="fill: #e66101" transform="translate(757.740781 387.907766) scale(0.09 -0.09)">
       <defs>
        <path id="DejaVuSerif-2212" d="M 678 2259  L 4684 2259  L 4684 1753  L 678 1753  L 678 2259  z " transform="scale(0.015625)" />
       </defs>
       <use xlink:href="#DejaVuSerif-2212" />
       <use xlink:href="#DejaVuSerif-33" transform="translate(83.789062 0)" />
       <use xlink:href="#DejaVuSerif-30" transform="translate(147.412109 0)" />
       <use xlink:href="#DejaVuSerif-30" transform="translate(211.035156 0)" />
       <use xlink:href="#DejaVuSerif-30" transform="translate(274.658203 0)" />
       <use xlink:href="#DejaVuSerif-30" transform="translate(338.28125 0)" />
       <use xlink:href="#DejaVuSerif-30" transform="translate(401.904297 0)" />
      </g>
     </g>
    </g>
    <g id="ytick_11">
     <g id="line2d_29">
      <path d="M 45.540781 329.924136  L 750.740781 329.924136  " clip-path="url(#p35a6d374d1)" style="fill: none; stroke: #eeeeee; stroke-opacity: 0.75; stroke-width: 0.6; stroke-linecap: square" />
     </g>
     <g id="line2d_30">
      <g>
       <use xlink:href="#ma11cc4bf42" x="750.740781" y="329.924136" style="fill: #333333; stroke: #333333; stroke-width: 0.8" />
      </g>
     </g>
     <g id="text_19">
      <!-- −250000 -->
      <g style="fill: #e66101" transform="translate(757.740781 333.343433) scale(0.09 -0.09)">
       <use xlink:href="#DejaVuSerif-2212" />
       <use xlink:href="#DejaVuSerif-32" transform="translate(83.789062 0)" />
       <use xlink:href="#DejaVuSerif-35" transform="translate(147.412109 0)" />
       <use xlink:href="#DejaVuSerif-30" transform="translate(211.035156 0)" />
       <use xlink:href="#DejaVuSerif-30" transform="translate(274.658203 0)" />
       <use xlink:href="#DejaVuSerif-30" transform="translate(338.28125 0)" />
       <use xlink:href="#DejaVuSerif-30" transform="translate(401.904297 0)" />
      </g>
     </g>
    </g>
    <g id="ytick_12">
     <g id="line2d_31">
      <path d="M 45.540781 275.359803  L 750.740781 275.359803  " clip-path="url(#p35a6d374d1)" style="fill: none; stroke: #eeeeee; stroke-opacity: 0.75; stroke-width: 0.6; stroke-linecap: square" />
     </g>
     <g id="line2d_32">
      <g>
       <use xlink:href="#ma11cc4bf42" x="750.740781" y="275.359803" style="fill: #333333; stroke: #333333; stroke-width: 0.8" />
      </g>
     </g>
     <g id="text_20">
      <!-- −200000 -->
      <g style="fill: #e66101" transform="translate(757.740781 278.779099) scale(0.09 -0.09)">
       <use xlink:href="#DejaVuSerif-2212" />
       <use xlink:href="#DejaVuSerif-32" transform="translate(83.789062 0)" />
       <use xlink:href="#DejaVuSerif-30" transform="translate(147.412109 0)" />
       <use xlink:href="#DejaVuSerif-30" transform="translate(211.035156 0)" />
       <use xlink:href="#DejaVuSerif-30" transform="translate(274.658203 0)" />
       <use xlink:href="#DejaVuSerif-30" transform="translate(338.28125 0)" />
       <use xlink:href="#DejaVuSerif-30" transform="translate(401.904297 0)" />
      </g>
     </g>
    </g>
    <g id="ytick_13">
     <g id="line2d_33">
      <path d="M 45.540781 220.795469  L 750.740781 220.795469  " clip-path="url(#p35a6d374d1)" style="fill: none; stroke: #eeeeee; stroke-opacity: 0.75; stroke-width: 0.6; stroke-linecap: square" />
     </g>
     <g id="line2d_34">
      <g>
       <use xlink:href="#ma11cc4bf42" x="750.740781" y="220.795469" style="fill: #333333; stroke: #333333; stroke-width: 0.8" />
      </g>
     </g>
     <g id="text_21">
      <!-- −150000 -->
      <g style="fill: #e66101" transform="translate(757.740781 224.214766) scale(0.09 -0.09)">
       <use xlink:href="#DejaVuSerif-2212" />
       <use xlink:href="#DejaVuSerif-31" transform="translate(83.789062 0)" />
       <use xlink:href="#DejaVuSerif-35" transform="translate(147.412109 0)" />
       <use xlink:href="#DejaVuSerif-30" transform="translate(211.035156 0)" />
       <use xlink:href="#DejaVuSerif-30" transform="translate(274.658203 0)" />
       <use xlink:href="#DejaVuSerif-30" transform="translate(338.28125 0)" />
       <use xlink:href="#DejaVuSerif-30" transform="translate(401.904297 0)" />
      </g>
     </g>
    </g>
    <g id="ytick_14">
     <g id="line2d_35">
      <path d="M 45.540781 166.231136  L 750.740781 166.231136  " clip-path="url(#p35a6d374d1)" style="fill: none; stroke: #eeeeee; stroke-opacity: 0.75; stroke-width: 0.6; stroke-linecap: square" />
     </g>
     <g id="line2d_36">
      <g>
       <use xlink:href="#ma11cc4bf42" x="750.740781" y="166.231136" style="fill: #333333; stroke: #333333; stroke-width: 0.8" />
      </g>
     </g>
     <g id="text_22">
      <!-- −100000 -->
      <g style="fill: #e66101" transform="translate(757.740781 169.650433) scale(0.09 -0.09)">
       <use xlink:href="#DejaVuSerif-2212" />
       <use xlink:href="#DejaVuSerif-31" transform="translate(83.789062 0)" />
       <use xlink:href="#DejaVuSerif-30" transform="translate(147.412109 0)" />
       <use xlink:href="#DejaVuSerif-30" transform="translate(211.035156 0)" />
       <use xlink:href="#DejaVuSerif-30" transform="translate(274.658203 0)" />
       <use xlink:href="#DejaVuSerif-30" transform="translate(338.28125 0)" />
       <use xlink:href="#DejaVuSerif-30" transform="translate(401.904297 0)" />
      </g>
     </g>
    </g>
    <g id="ytick_15">
     <g id="line2d_37">
      <path d="M 45.540781 111.666802  L 750.740781 111.666802  " clip-path="url(#p35a6d374d1)" style="fill: none; stroke: #eeeeee; stroke-opacity: 0.75; stroke-width: 0.6; stroke-linecap: square" />
     </g>
     <g id="line2d_38">
      <g>
       <use xlink:href="#ma11cc4bf42" x="750.740781" y="111.666802" style="fill: #333333; stroke: #333333; stroke-width: 0.8" />
      </g>
     </g>
     <g id="text_23">
      <!-- −50000 -->
      <g style="fill: #e66101" transform="translate(757.740781 115.086099) scale(0.09 -0.09)">
       <use xlink:href="#DejaVuSerif-2212" />
       <use xlink:href="#DejaVuSerif-35" transform="translate(83.789062 0)" />
       <use xlink:href="#DejaVuSerif-30" transform="translate(147.412109 0)" />
       <use xlink:href="#DejaVuSerif-30" transform="translate(211.035156 0)" />
       <use xlink:href="#DejaVuSerif-30" transform="translate(274.658203 0)" />
       <use xlink:href="#DejaVuSerif-30" transform="translate(338.28125 0)" />
      </g>
     </g>
    </g>
    <g id="ytick_16">
     <g id="line2d_39">
      <path d="M 45.540781 57.102469  L 750.740781 57.102469  " clip-path="url(#p35a6d374d1)" style="fill: none; stroke: #eeeeee; stroke-opacity: 0.75; stroke-width: 0.6; stroke-linecap: square" />
     </g>
     <g id="line2d_40">
      <g>
       <use xlink:href="#ma11cc4bf42" x="750.740781" y="57.102469" style="fill: #333333; stroke: #333333; stroke-width: 0.8" />
      </g>
     </g>
     <g id="text_24">
      <!-- 0 -->
      <g style="fill: #e66101" transform="translate(757.740781 60.521766) scale(0.09 -0.09)">
       <use xlink:href="#DejaVuSerif-30" />
      </g>
     </g>
    </g>
    <g id="text_25">
     <!-- Delegation Labor Delta -->
     <g style="fill: #e66101" transform="translate(811.618359 293.229546) rotate(-90) scale(0.105 -0.105)">
      <defs>
       <path id="DejaVuSerif-44" d="M 1581 331  L 2163 331  Q 3072 331 3558 850  Q 4044 1369 4044 2338  Q 4044 3306 3559 3818  Q 3075 4331 2163 4331  L 1581 4331  L 1581 331  z M 353 0  L 353 331  L 947 331  L 947 4331  L 353 4331  L 353 4666  L 2209 4666  Q 3416 4666 4089 4050  Q 4763 3434 4763 2338  Q 4763 1238 4088 619  Q 3413 0 2209 0  L 353 0  z " transform="scale(0.015625)" />
       <path id="DejaVuSerif-67" d="M 3359 2988  L 3359 72  Q 3359 -644 2965 -1033  Q 2572 -1422 1844 -1422  Q 1516 -1422 1216 -1362  Q 916 -1303 641 -1184  L 641 -488  L 941 -488  Q 997 -813 1206 -963  Q 1416 -1113 1806 -1113  Q 2313 -1113 2548 -827  Q 2784 -541 2784 72  L 2784 519  Q 2616 206 2355 57  Q 2094 -91 1709 -91  Q 1097 -91 708 395  Q 319 881 319 1663  Q 319 2444 706 2928  Q 1094 3413 1709 3413  Q 2094 3413 2355 3264  Q 2616 3116 2784 2803  L 2784 3322  L 3909 3322  L 3909 2988  L 3359 2988  z M 2784 1825  Q 2784 2422 2554 2737  Q 2325 3053 1888 3053  Q 1444 3053 1217 2703  Q 991 2353 991 1663  Q 991 975 1217 622  Q 1444 269 1888 269  Q 2325 269 2554 583  Q 2784 897 2784 1497  L 2784 1825  z " transform="scale(0.015625)" />
      </defs>
      <use xlink:href="#DejaVuSerif-44" />
      <use xlink:href="#DejaVuSerif-65" transform="translate(80.175781 0)" />
      <use xlink:href="#DejaVuSerif-6c" transform="translate(139.355469 0)" />
      <use xlink:href="#DejaVuSerif-65" transform="translate(171.337891 0)" />
      <use xlink:href="#DejaVuSerif-67" transform="translate(230.517578 0)" />
      <use xlink:href="#DejaVuSerif-61" transform="translate(294.53125 0)" />
      <use xlink:href="#DejaVuSerif-74" transform="translate(354.150391 0)" />
      <use xlink:href="#DejaVuSerif-69" transform="translate(394.335938 0)" />
      <use xlink:href="#DejaVuSerif-6f" transform="translate(426.318359 0)" />
      <use xlink:href="#DejaVuSerif-6e" transform="translate(486.523438 0)" />
      <use xlink:href="#DejaVuSerif-20" transform="translate(550.927734 0)" />
      <use xlink:href="#DejaVuSerif-4c" transform="translate(582.714844 0)" />
      <use xlink:href="#DejaVuSerif-61" transform="translate(649.121094 0)" />
      <use xlink:href="#DejaVuSerif-62" transform="translate(708.740234 0)" />
      <use xlink:href="#DejaVuSerif-6f" transform="translate(772.753906 0)" />
      <use xlink:href="#DejaVuSerif-72" transform="translate(832.958984 0)" />
      <use xlink:href="#DejaVuSerif-20" transform="translate(880.761719 0)" />
      <use xlink:href="#DejaVuSerif-44" transform="translate(912.548828 0)" />
      <use xlink:href="#DejaVuSerif-65" transform="translate(992.724609 0)" />
      <use xlink:href="#DejaVuSerif-6c" transform="translate(1051.904297 0)" />
      <use xlink:href="#DejaVuSerif-74" transform="translate(1083.886719 0)" />
      <use xlink:href="#DejaVuSerif-61" transform="translate(1124.072266 0)" />
     </g>
    </g>
   </g>
   <g id="line2d_41">
    <path d="M 127.257299 57.119543  L 307.846287 57.105847  L 488.435275 57.117426  L 669.024264 405.062777  " clip-path="url(#p35a6d374d1)" style="fill: none; stroke: #e66101; stroke-width: 2.5; stroke-linecap: square" />
    <defs>
     <path id="meb87c57f35" d="M -0 5.656854  L 5.656854 0  L 0 -5.656854  L -5.656854 -0  z " style="stroke: #e66101; stroke-linejoin: miter" />
    </defs>
    <g clip-path="url(#p35a6d374d1)">
     <use xlink:href="#meb87c57f35" x="127.257299" y="57.119543" style="fill: #e66101; stroke: #e66101; stroke-linejoin: miter" />
     <use xlink:href="#meb87c57f35" x="307.846287" y="57.105847" style="fill: #e66101; stroke: #e66101; stroke-linejoin: miter" />
     <use xlink:href="#meb87c57f35" x="488.435275" y="57.117426" style="fill: #e66101; stroke: #e66101; stroke-linejoin: miter" />
     <use xlink:href="#meb87c57f35" x="669.024264" y="405.062777" style="fill: #e66101; stroke: #e66101; stroke-linejoin: miter" />
    </g>
   </g>
   <g id="patch_21">
    <path d="M 45.540781 422.460624  L 45.540781 39.708  " style="fill: none; stroke: #444444; stroke-width: 0.9; stroke-linejoin: miter; stroke-linecap: square" />
   </g>
   <g id="patch_22">
    <path d="M 45.540781 422.460624  L 750.740781 422.460624  " style="fill: none; stroke: #444444; stroke-width: 0.9; stroke-linejoin: miter; stroke-linecap: square" />
   </g>
   <g id="legend_2">
    <g id="patch_23">
     <path d="M 661.552187 60.118312  L 744.440781 60.118312  Q 746.240781 60.118312 746.240781 58.318312  L 746.240781 46.008  Q 746.240781 44.208 744.440781 44.208  L 661.552187 44.208  Q 659.752187 44.208 659.752187 46.008  L 659.752187 58.318312  Q 659.752187 60.118312 661.552187 60.118312  z " style="fill: #ffffff; opacity: 0.95; stroke: #d9d9d9; stroke-width: 0.8; stroke-linejoin: miter" />
    </g>
    <g id="line2d_42">
     <path d="M 663.352187 51.496594  L 672.352187 51.496594  L 681.352187 51.496594  " style="fill: none; stroke: #e66101; stroke-width: 2.5; stroke-linecap: square" />
     <g>
      <use xlink:href="#meb87c57f35" x="672.352187" y="51.496594" style="fill: #e66101; stroke: #e66101; stroke-linejoin: miter" />
     </g>
    </g>
    <g id="text_26">
     <!-- Labor Delta -->
     <g transform="translate(688.552187 54.646594) scale(0.09 -0.09)">
      <use xlink:href="#DejaVuSerif-4c" />
      <use xlink:href="#DejaVuSerif-61" transform="translate(66.40625 0)" />
      <use xlink:href="#DejaVuSerif-62" transform="translate(126.025391 0)" />
      <use xlink:href="#DejaVuSerif-6f" transform="translate(190.039062 0)" />
      <use xlink:href="#DejaVuSerif-72" transform="translate(250.244141 0)" />
      <use xlink:href="#DejaVuSerif-20" transform="translate(298.046875 0)" />
      <use xlink:href="#DejaVuSerif-44" transform="translate(329.833984 0)" />
      <use xlink:href="#DejaVuSerif-65" transform="translate(410.009766 0)" />
      <use xlink:href="#DejaVuSerif-6c" transform="translate(469.189453 0)" />
      <use xlink:href="#DejaVuSerif-74" transform="translate(501.171875 0)" />
      <use xlink:href="#DejaVuSerif-61" transform="translate(541.357422 0)" />
     </g>
    </g>
   </g>
  </g>
  <g id="blog_title"><!-- Figure 6. Labor Composition: Convenience Reshapes Before It Overloads --><text x="410.576" y="18.000" text-anchor="middle" font-family="DejaVu Serif, Georgia, serif" font-size="11.4px" font-weight="700" fill="#2d2d2d">Figure 6. Labor Composition: Convenience Reshapes Before It Overloads</text></g></g>
 <defs>
  <clipPath id="p35a6d374d1">
   <rect x="45.540781" y="39.708" width="705.2" height="382.752624" />
  </clipPath>
 </defs>
</svg>